<svg xmlns="http://www.w3.org/2000/svg" xmlns:xlink="http://www.w3.org/1999/xlink" viewBox="0 0 1000 1000"><defs><style>.cls-1{fill:#070808;}.cls-2,.cls-3,.cls-4,.cls-5{stroke:#050606;stroke-miterlimit:10;stroke-width:15px;}.cls-2{fill:url(#linear-gradient);}.cls-3{fill:url(#linear-gradient-2);}.cls-4{fill:url(#linear-gradient-3);}.cls-5{fill:url(#linear-gradient-4);}.cls-6{fill:#fbb217;}</style><linearGradient id="linear-gradient" x1="762.95" y1="242.58" x2="154.27" y2="514.24" gradientUnits="userSpaceOnUse"><stop offset="0" stop-color="#f8b219"/><stop offset="1" stop-color="#f9f4e9"/></linearGradient><linearGradient id="linear-gradient-2" x1="752.19" y1="630.88" x2="90.4" y2="814.71" xlink:href="#linear-gradient"/><linearGradient id="linear-gradient-3" x1="828.26" y1="473.13" x2="29.62" y2="575.25" gradientUnits="userSpaceOnUse"><stop offset="0" stop-color="#f8b219"/><stop offset="0.17" stop-color="#f8b31c"/><stop offset="0.31" stop-color="#f8b627"/><stop offset="0.44" stop-color="#f8bc38"/><stop offset="0.57" stop-color="#f8c450"/><stop offset="0.69" stop-color="#f8cd70"/><stop offset="0.81" stop-color="#f9da96"/><stop offset="0.92" stop-color="#f9e8c3"/><stop offset="1" stop-color="#f9f4e9"/></linearGradient><linearGradient id="linear-gradient-4" x1="140.37" y1="614.89" x2="911.43" y2="575.06" gradientUnits="userSpaceOnUse"><stop offset="0" stop-color="#f8b219"/><stop offset="0.24" stop-color="#f8b31c"/><stop offset="0.39" stop-color="#f8b524"/><stop offset="0.51" stop-color="#f8ba32"/><stop offset="0.61" stop-color="#f8c046"/><stop offset="0.71" stop-color="#f8c961"/><stop offset="0.8" stop-color="#f8d381"/><stop offset="0.89" stop-color="#f9dfa7"/><stop offset="0.96" stop-color="#f9edd3"/><stop offset="1" stop-color="#f9f4e9"/></linearGradient></defs><title>Burger</title><g id="Folder"><path class="cls-1" d="M886.17,596.27a40.34,40.34,0,0,0,40.36-40.36h0a40.21,40.21,0,0,0-11.35-28c-.15-.16-.31-.34-.47-.5l-.53-.5a40.2,40.2,0,0,0-25.93-11.26c-.69,0-1.38-.06-2.08-.06h-76a41.84,41.84,0,0,0,33.9-18.37v0c.4-.59.79-1.19,1.16-1.81a.56.56,0,0,0,.05-.08c.36-.59.71-1.19,1-1.81a.83.83,0,0,1,.07-.13c.32-.6.62-1.2.91-1.81l.09-.2c.28-.6.55-1.2.8-1.81a2,2,0,0,0,.1-.26c.24-.59.47-1.19.69-1.79,0-.11.06-.21.1-.32.2-.59.4-1.18.57-1.79a3.57,3.57,0,0,0,.1-.35c.17-.6.33-1.19.47-1.8,0-.12.05-.25.08-.37.14-.6.27-1.21.38-1.82l.06-.38c.1-.62.2-1.23.28-1.85l0-.34c.08-.64.15-1.28.19-1.92a2.44,2.44,0,0,0,0-.27c0-.68.08-1.35.09-2v0a42,42,0,0,0-.48-6.95,320.58,320.58,0,0,0-7.81-36.86C805.73,294.08,681,193.93,532.83,193.93c-150.49,0-276.83,103.34-312,242.91q-3.76,14.94-6.12,30.39a42,42,0,0,0-.47,6.94s0,0,0,.05c0,.7,0,1.39.09,2.08a1.48,1.48,0,0,1,0,.21c0,.66.11,1.31.19,2l0,.31c.08.64.18,1.28.29,1.91,0,.1,0,.21.05.32q.18.94.39,1.89c0,.1,0,.2.07.3.15.63.32,1.26.49,1.88a2.68,2.68,0,0,1,.07.27c.19.63.4,1.26.61,1.89a1.72,1.72,0,0,1,.07.21q.35,1,.72,1.89a1.11,1.11,0,0,0,.07.16c.26.64.54,1.27.83,1.9a.37.37,0,0,1,.05.11q.47,1,1,1.89l0,.06a41.9,41.9,0,0,0,36.16,22.09H181.19c-.7,0-1.39,0-2.08.06a40.36,40.36,0,0,0-38.28,40.3h0a40.17,40.17,0,0,0,9.22,25.67c.82,1,1.69,2,2.6,2.87q.67.67,1.38,1.32l.25.21c.38.35.77.68,1.16,1l.56.45.92.71.67.5.85.6.74.49.85.54c.25.16.51.31.77.46l.87.5.78.42.92.46.78.38,1,.43.76.33,1,.4.74.28,1.11.37.71.23,1.2.34.66.17c.43.11.87.21,1.3.3l.59.13c.48.1,1,.18,1.44.26l.49.08c.54.08,1.08.15,1.63.21l.34,0c.63.06,1.26.11,1.9.14h.31v.09h-.15l-.64,0-1.38.1-.75.09-1.23.16-.82.14-1.14.2-.87.19-1.05.24-.9.25-1,.28c-.31.09-.61.19-.92.3l-.93.31-.93.35-.87.35-.93.4-.84.38c-.31.14-.61.3-.92.45l-.79.41-.92.5-.75.44c-.31.17-.6.36-.9.55l-.72.46c-.3.19-.59.39-.88.6l-.69.49-.86.64c-.22.17-.44.34-.65.52l-.83.68-.63.54c-.27.24-.54.48-.8.73l-.59.57-.77.76-.57.59-.73.81-.54.61c-.23.28-.47.56-.7.85l-.5.63-.66.88-.47.66c-.21.3-.42.6-.62.91s-.3.45-.44.68-.39.62-.58.94l-.41.7-.54,1-.37.73c-.17.33-.33.66-.49,1s-.23.5-.34.75-.3.67-.44,1-.21.5-.31.76-.27.69-.4,1-.17.53-.26.79-.24.7-.35,1.06-.15.54-.23.8-.21.73-.3,1.09-.12.54-.18.81-.18.74-.26,1.12-.09.54-.14.81-.14.76-.2,1.15-.07.53-.1.79-.11.8-.15,1.2,0,.5-.06.75c0,.42-.07.84-.09,1.27,0,.13,0,.27,0,.4,0,.54,0,1.08,0,1.62h0A40.36,40.36,0,0,0,181.19,677H233.5a17.3,17.3,0,0,0-16.62,21.73l4.88,18.44,14,52.72a78.29,78.29,0,0,0,75.68,58.26H754.27A78.29,78.29,0,0,0,830,769.89l13-49.09,5.84-22.07a15.64,15.64,0,0,0,.4-2,17.29,17.29,0,0,0-17-19.76h54a40.33,40.33,0,0,0,40.36-40.36h0a40.19,40.19,0,0,0-9.59-26.11c-.71-.83-1.45-1.65-2.23-2.43l-.44-.42a40.2,40.2,0,0,0-26-11.34c-.69,0-1.38-.06-2.08-.06h0Z"/><path class="cls-2" d="M769.39,475.58H216.27a42,42,0,0,1-41.52-48.35c23.34-154.7,156.86-273.29,318.08-273.29S787.57,272.52,810.91,427.23A42,42,0,0,1,769.39,475.58Z"/><path class="cls-3" d="M714.27,788.15H271.39a78.29,78.29,0,0,1-75.68-58.25l-18.83-71.17A17.3,17.3,0,0,1,193.61,637H792.06a17.3,17.3,0,0,1,16.72,21.73L790,729.9A78.29,78.29,0,0,1,714.27,788.15Z"/><rect class="cls-4" x="100.83" y="475.55" width="785.7" height="80.72" rx="40.36"/><rect class="cls-5" x="100.83" y="556.28" width="785.7" height="80.72" rx="40.36"/><path class="cls-6" d="M793.21,544.68a174.94,174.94,0,0,0-33,27.59c-21.82,23.44-25.45,40.55-36.45,40.39s-14-16.9-33.55-38.37a147,147,0,0,0-37.7-29.61v-13.8H793.21Z"/><path class="cls-6" d="M330.57,620.25a175.06,175.06,0,0,0-33,27.6c-21.82,23.43-25.45,40.54-36.45,40.38-10.84-.15-14-16.89-33.55-38.36a147.06,147.06,0,0,0-37.7-29.62v-13.8H330.57Z"/><path class="cls-1" d="M492.83,153.93c161.22,0,294.74,118.59,318.08,273.29a42,42,0,0,1-40.71,48.33h76a40.36,40.36,0,1,1,0,80.72h0a40.36,40.36,0,0,1,0,80.72H792.06a17.29,17.29,0,0,1,16.72,21.72L790,729.89a78.29,78.29,0,0,1-75.68,58.26H271.39a78.29,78.29,0,0,1-75.68-58.26l-18.83-71.17A17.3,17.3,0,0,1,193.6,637H141.19a40.36,40.36,0,0,1-1.85-80.68v-.09a40.36,40.36,0,0,1,1.85-80.68h74.27a42,42,0,0,1-40.71-48.33c23.34-154.7,156.86-273.29,318.08-273.29m0-30A351.77,351.77,0,0,0,145.09,422.75a72,72,0,0,0,.2,22.8h-4.1A70.39,70.39,0,0,0,83.54,556.28,70.37,70.37,0,0,0,141.19,667H148l18.67,70.57a108.39,108.39,0,0,0,104.68,80.58H714.27A108.38,108.38,0,0,0,819,737.57L837.62,667h8.55A70.39,70.39,0,0,0,903.8,556.24a70.34,70.34,0,0,0-57.63-110.69h-5.8a71.78,71.78,0,0,0,.2-22.81A351.39,351.39,0,0,0,492.83,123.93Z"/></g></svg>