<svg xmlns="http://www.w3.org/2000/svg" viewBox="0 0 1000 765.11"><defs><style>.cls-1{fill:#fab118;}.cls-2{fill:#121212;}.cls-3{fill:#fff;}.cls-4{fill:#66beb9;}</style></defs><title>EdventureLogo_1</title><g id="Folder"><path class="cls-1" d="M724,680.73,176.61,612.79c-78.09-9.66-129-84.7-106.17-160.57l81.5-270.56a176.63,176.63,0,0,1,72.18-96.84A174.2,174.2,0,0,1,341.18,57.54L698,101.81a174.88,174.88,0,0,1,106.91,55.13,177.53,177.53,0,0,1,46.67,111.55l14,282.33C869.51,630.13,802.09,690.43,724,680.73Z"/><path class="cls-2" d="M740.27,688.44a138.6,138.6,0,0,1-17.16-1.09L175.75,619.41a134,134,0,0,1-96.68-60,131.27,131.27,0,0,1-15-109.1l81.5-270.71A183,183,0,0,1,220.44,79,180.49,180.49,0,0,1,342,50.8L698.73,95.07a181.18,181.18,0,0,1,111.12,57.1,183.94,183.94,0,0,1,48.43,115.88l14,282.33a130.89,130.89,0,0,1-40.79,102.19,132.73,132.73,0,0,1-91.19,35.87ZM319.47,62.86a167.46,167.46,0,0,0-100.4,33.48,169.79,169.79,0,0,0-60.8,87.23L76.73,454.18a116.26,116.26,0,0,0,13.43,97.94,120.8,120.8,0,0,0,87.21,54l547.46,68A120.42,120.42,0,0,0,822.45,643,115.85,115.85,0,0,0,859,551.25l-14-282.33a170.57,170.57,0,0,0-44.84-107.5,168,168,0,0,0-103-53L340.43,64.16a168.86,168.86,0,0,0-21-1.3Z"/><path class="cls-3" d="M652,585l-382.5-47.42c-54.53-6.77-90.11-59.14-74.17-112.21l56.94-189a123.46,123.46,0,0,1,50.44-67.65,121.75,121.75,0,0,1,81.78-19l249.27,30.95A122.11,122.11,0,0,1,708.51,219a124,124,0,0,1,32.62,78L751,494.5C753.66,549.7,706.52,591.83,652,585Z"/><path class="cls-2" d="M663.37,590.42a101.71,101.71,0,0,1-12-.73l-382.5-47.48a93.67,93.67,0,0,1-67.53-41.92A91.54,91.54,0,0,1,191,424.06l56.94-189a127.93,127.93,0,0,1,52.3-70.27A126.15,126.15,0,0,1,385.13,145L634.29,176a126.64,126.64,0,0,1,77.52,39.94,128.5,128.5,0,0,1,33.77,80.88l9.77,197.35a91.34,91.34,0,0,1-92,96.28Zm-10.77-10a84.13,84.13,0,0,0,68.21-21.72A81,81,0,0,0,746.3,494.5l-9.62-197.24a119.22,119.22,0,0,0-31.34-75.15,117.44,117.44,0,0,0-72-37.05L383.91,154.25a116.94,116.94,0,0,0-78.73,18.28,118.51,118.51,0,0,0-48.47,65.15L199.77,426.74a81,81,0,0,0,9.37,68.41,84.39,84.39,0,0,0,61,37.79Z"/><path class="cls-3" d="M807.83,420.88a17.74,17.74,0,1,0-17.59-17.74A17.66,17.66,0,0,0,807.83,420.88Z"/><path class="cls-2" d="M807.91,426a19.67,19.67,0,0,1-2.87-.18,22.56,22.56,0,0,1-14.79-8.36,22.91,22.91,0,0,1,3-31.54,22.47,22.47,0,0,1,31.37,2,22.92,22.92,0,0,1-1,31.66A22.51,22.51,0,0,1,807.91,426Zm0-35.47a12.12,12.12,0,0,0-7.68,2.67,12.67,12.67,0,0,0-3.47,15.59,12.45,12.45,0,0,0,21.37,1.6A12.66,12.66,0,0,0,817,394.44a12.44,12.44,0,0,0-7.51-3.83,11,11,0,0,0-1.62-.1Z"/><path class="cls-2" d="M511.11,491.06a158.34,158.34,0,0,1-41.21-6c-38.46-10.86-58.78-30.55-53-51.39a8.76,8.76,0,0,1,1.53-3,8.58,8.58,0,0,1,12.12-1.46,8.51,8.51,0,0,1,2.19,2.58,8.72,8.72,0,0,1,1.05,3.22,9,9,0,0,1-.26,3.39c-2.73,9.84,14.36,22.44,41,29.93,32.32,9.13,58.56,5.58,60.46-1.3a8.69,8.69,0,0,1,4.09-5.23,8.54,8.54,0,0,1,6.56-.79,8.63,8.63,0,0,1,5.19,4.11,8.77,8.77,0,0,1,.78,6.62C547.66,486.1,530.5,491.06,511.11,491.06Z"/><path class="cls-2" d="M386.09,358.37a8.59,8.59,0,0,1-5.29-1.78,8.73,8.73,0,0,1,1-14.48c15.83-9.08,43.08-9.66,60.6-8.86-20.18-28.53-63.33-44.92-63.84-45.1a8.63,8.63,0,0,1-4.85-4.52,8.76,8.76,0,0,1-.26-6.65,8.62,8.62,0,0,1,4.48-4.89,8.52,8.52,0,0,1,6.59-.27c2.62,1,64.27,24.29,81,68.16a8.8,8.8,0,0,1-1.22,8.47,8.59,8.59,0,0,1-7.82,3.29c-13.11-1.48-50.59-3.62-66.17,5.5a8.52,8.52,0,0,1-4.24,1.13Z"/><path class="cls-4" d="M621.58,713.16l-47.9-26a13.63,13.63,0,0,1-4.11-3.41,13.79,13.79,0,0,1-1.45-15.19l81.17-151.45a13.84,13.84,0,0,1,3.38-4.15,13.54,13.54,0,0,1,15.08-1.46l47.89,26a13.6,13.6,0,0,1,4.11,3.4,14,14,0,0,1,2.5,4.73,13.82,13.82,0,0,1-1,10.47L640,707.55a13.54,13.54,0,0,1-18.45,5.61Z"/><path class="cls-2" d="M628,721.45a19.79,19.79,0,0,1-9.55-2.43l-47.93-26a20.47,20.47,0,0,1-8.22-27.61l81-151.48a20.15,20.15,0,0,1,27.39-8.29l48,26A20.49,20.49,0,0,1,727,559.25l-81.1,151.48A20.17,20.17,0,0,1,628,721.45Zm-3.27-14.19a6.86,6.86,0,0,0,2.6.81,6.94,6.94,0,0,0,2.72-.25,7.16,7.16,0,0,0,2.4-1.29,7,7,0,0,0,1.72-2.13l81.18-151.48a7.3,7.3,0,0,0,.47-5.35,7.18,7.18,0,0,0-3.31-4.21l-47.93-26a6.82,6.82,0,0,0-2.6-.82,7.16,7.16,0,0,0-5.13,1.56,6.9,6.9,0,0,0-1.75,2.12L573.94,671.86a7.26,7.26,0,0,0,2.87,9.55Z"/><path class="cls-4" d="M755.06,585.24c106.46,0,192.76-87,192.76-194.34s-86.3-194.33-192.76-194.33-192.75,87-192.75,194.33S648.61,585.24,755.06,585.24Z"/><path class="cls-2" d="M755.49,591.93a198.21,198.21,0,0,1-113.71-35.58,202,202,0,0,1-18-316.8,198.7,198.7,0,0,1,309,60.27,202.16,202.16,0,0,1-46.52,242.42A198.49,198.49,0,0,1,755.49,591.93Zm-.86-388.71a185.47,185.47,0,0,0-129.3,53,188.85,188.85,0,0,0-8.47,260.76,185.15,185.15,0,0,0,258.2,17.53A188.85,188.85,0,0,0,901.33,274.9,185.92,185.92,0,0,0,780.23,205a190.59,190.59,0,0,0-25.6-1.74Z"/><path class="cls-3" d="M890.44,392.64,714.85,415.48q4.2,21.72,16.26,31.13a37,37,0,0,0,28.72,7.24,33.87,33.87,0,0,0,17.48-6.52,34.26,34.26,0,0,0,11.46-14.8,7.63,7.63,0,0,1,2.26-3,7.38,7.38,0,0,1,3.45-1.53L880,416.86a7,7,0,0,1,3.28.37,7.27,7.27,0,0,1,4.66,8,118.49,118.49,0,0,1-16.34,42.93A124.49,124.49,0,0,1,831.24,508a142.13,142.13,0,0,1-58,20.16,144,144,0,0,1-71.81-7.63A119.87,119.87,0,0,1,647.53,479q-21.28-28.77-26.64-70.76t7.72-75a120,120,0,0,1,41.5-53.68,158.14,158.14,0,0,1,139.81-18.67,117.4,117.4,0,0,1,53.31,40.39,144,144,0,0,1,26.14,69.14A166.6,166.6,0,0,1,890.44,392.64Zm-99.05-33.19a34.06,34.06,0,0,0-4.52-14.37,33.68,33.68,0,0,0-10.27-11A42.48,42.48,0,0,0,746.94,328a41.91,41.91,0,0,0-26.74,13,45.94,45.94,0,0,0-10.77,29.28Z"/><path class="cls-3" d="M204,211.77a13.52,13.52,0,0,1-2.62-.25,13.7,13.7,0,0,1-8.7-5.85,13.85,13.85,0,0,1-2.07-10.33c.22-1.16,24.52-119.13,165.33-104.18a13.68,13.68,0,0,1,5.1,1.59,13.88,13.88,0,0,1,4.11,3.44,13.85,13.85,0,0,1,3,10.12,13.83,13.83,0,0,1-5,9.28,13.62,13.62,0,0,1-4.72,2.51,13.47,13.47,0,0,1-5.32.5c-116.18-12.34-134.88,78.15-135.63,82a13.83,13.83,0,0,1-4.74,8,13.6,13.6,0,0,1-8.73,3.15Z"/><path class="cls-3" d="M463.83,132.53a10.82,10.82,0,0,1-1.61,0l-58.16-6.87a13.65,13.65,0,0,1-9.15-5.16,13.86,13.86,0,0,1,2.26-19.37,13.63,13.63,0,0,1,10.08-2.88l58.16,6.88a13.72,13.72,0,0,1,8.52,5,13.88,13.88,0,0,1-1.07,18.49,13.62,13.62,0,0,1-9,3.94Z"/><path class="cls-1" d="M596.66,602.65c3,38.62,25.13,64.28,60,70.33,39.1,6.84,70.44-36.63,73.31-54.3,3.34-20.41,0-45.06-36.62-67.1a103,103,0,0,0-39.74-14.48c-26.35-3.19-51.74,16.69-56.73,30.37"/><path class="cls-2" d="M664.87,681.56a57.73,57.73,0,0,1-9.55-.83c-38.41-6.7-63.25-35.66-66.45-77.47a7.85,7.85,0,0,1,2-5.44,7.73,7.73,0,0,1,10.67-.85,7.88,7.88,0,0,1,2.83,5.07c2.66,34.71,22.22,57.73,53.6,63.19,12,2.1,24.06-1.16,35.9-9.7,16.34-11.69,27-29.68,28.33-38.18,2.73-16.65,1.44-38.45-32.92-59.08a96.5,96.5,0,0,0-36.66-13.57c-22.94-2.75-44.77,15.06-48.5,25.34a7.85,7.85,0,0,1-1.54,2.71,7.76,7.76,0,0,1-2.48,1.89,7.66,7.66,0,0,1-3,.77,7.81,7.81,0,0,1-3.07-.47,7.87,7.87,0,0,1-4.52-10.33c6.17-16.91,34.53-39.13,64.94-35.47a112.29,112.29,0,0,1,42.8,15.67c32.31,19.36,45.41,43.94,40.32,75.14-2.16,13.1-15.69,34.82-34.68,48.43a65.4,65.4,0,0,1-38,13.18Z"/></g></svg>