<svg xmlns="http://www.w3.org/2000/svg" xmlns:xlink="http://www.w3.org/1999/xlink" viewBox="0 0 1000 1000"><defs><style>.cls-1{fill:#070808;}.cls-2,.cls-3,.cls-5,.cls-7,.cls-8{stroke:#070808;}.cls-2,.cls-3,.cls-5,.cls-6,.cls-7,.cls-8{stroke-miterlimit:10;}.cls-2,.cls-3,.cls-7,.cls-8{stroke-width:5px;}.cls-2{fill:url(#linear-gradient);}.cls-3{fill:url(#linear-gradient-2);}.cls-4{fill:#f9f4e8;}.cls-5{fill:none;stroke-linecap:round;stroke-width:25px;}.cls-6{fill:#fbb217;stroke:url(#linear-gradient-3);}.cls-7{fill:url(#linear-gradient-4);}.cls-8{fill:url(#linear-gradient-5);}</style><linearGradient id="linear-gradient" x1="1464.35" y1="-485.43" x2="1769.38" y2="-761.94" gradientTransform="matrix(-0.92, -0.39, -0.39, 0.92, 1771.57, 1932.9)" gradientUnits="userSpaceOnUse"><stop offset="0" stop-color="#070808"/><stop offset="1" stop-color="#ababab"/></linearGradient><linearGradient id="linear-gradient-2" x1="2350.59" y1="-2214.45" x2="2655.62" y2="-2490.97" gradientTransform="matrix(0.92, 0.39, 0.39, -0.92, -911.53, -2906.13)" xlink:href="#linear-gradient"/><linearGradient id="linear-gradient-3" x1="654.81" y1="404.6" x2="828.2" y2="404.6" gradientUnits="userSpaceOnUse"><stop offset="0" stop-color="#f8b219"/><stop offset="1" stop-color="#fbc25c"/></linearGradient><linearGradient id="linear-gradient-4" x1="2257.05" y1="-2450.24" x2="2435.92" y2="-2450.24" gradientTransform="matrix(0.92, 0.39, 0.39, -0.92, -911.53, -2906.13)" gradientUnits="userSpaceOnUse"><stop offset="0" stop-color="#66beb9"/><stop offset="1" stop-color="#a1dadc"/></linearGradient><linearGradient id="linear-gradient-5" x1="1370.81" y1="-721.22" x2="1549.68" y2="-721.22" gradientTransform="matrix(-0.92, -0.39, -0.39, 0.92, 1771.57, 1932.9)" xlink:href="#linear-gradient-4"/></defs><title>Email</title><g id="Folder"><path class="cls-1" d="M911.64,277.39H556.11L421.81,144.74a9.62,9.62,0,0,0-8.37-5.27l-71.83-1.79a9.7,9.7,0,0,0-9.14,5.87L275.24,277.39H146.72a19.24,19.24,0,0,0-19.24,19.24V728.69a19.24,19.24,0,0,0,19.24,19.24H499.38l134,132.32a9.62,9.62,0,0,0,8.37,5.27l71.83,1.79a9.7,9.7,0,0,0,9.14-5.87l57.08-133.51H911.64a19.24,19.24,0,0,0,19.24-19.24V296.63A19.24,19.24,0,0,0,911.64,277.39ZM385,239.65l40.74,37.74H368.89ZM670.12,785.34l-40.38-37.41h56.37Z"/><path class="cls-2" d="M449.49,578.69l-111.16.62a3.47,3.47,0,0,0-4.5,4.73L603.44,850.35c.58,1.15,6.07,4.42,7.35,4.44l74.52,1.48c2.63.05,19.76-39.54,18.54-41.88L451.15,580.25A3.49,3.49,0,0,0,449.49,578.69Z"/><path class="cls-3" d="M545.66,386.3l111.16-.62a3.46,3.46,0,0,0,4.49-4.73L391.71,114.64c-.58-1.15-6.07-4.42-7.35-4.44l-74.52-1.48c-2.63,0-19.76,39.54-18.54,41.87L544,384.74A3.56,3.56,0,0,0,545.66,386.3Z"/><rect class="cls-4" x="94.98" y="244.89" width="808.4" height="475.54" rx="20.62"/><path class="cls-1" d="M882.76,247.39a18.13,18.13,0,0,1,18.12,18.13V699.8a18.13,18.13,0,0,1-18.12,18.13H115.6A18.13,18.13,0,0,1,97.48,699.8V265.52a18.13,18.13,0,0,1,18.12-18.13H882.76m0-5H115.6a23.15,23.15,0,0,0-23.12,23.13V699.8a23.15,23.15,0,0,0,23.12,23.13H882.76a23.15,23.15,0,0,0,23.12-23.13V265.52a23.15,23.15,0,0,0-23.12-23.13Z"/><line class="cls-5" x1="524.83" y1="566.68" x2="825.77" y2="566.68"/><line class="cls-5" x1="524.83" y1="633.05" x2="600.83" y2="633.05"/><rect class="cls-6" x="655.31" y="318.4" width="172.39" height="172.39" rx="18.12"/><path class="cls-7" d="M345.05,328.69l-28-12a7.13,7.13,0,0,1-3.76-9.36L392.1,123a9.68,9.68,0,0,0-8.66-13.48l-71.83-1.79a9.7,9.7,0,0,0-9.14,5.87L234.09,273.48a7.13,7.13,0,0,1-9.36,3.76l-28-12a8.74,8.74,0,0,0-12.12,9.08l19.24,160.21a8.74,8.74,0,0,0,13.93,6l129.12-96.78A8.74,8.74,0,0,0,345.05,328.69Z"/><path class="cls-8" d="M650.1,636.3l28,12a7.13,7.13,0,0,1,3.76,9.36L603.05,842a9.68,9.68,0,0,0,8.66,13.48l71.83,1.79a9.7,9.7,0,0,0,9.14-5.87l68.38-159.93a7.13,7.13,0,0,1,9.36-3.76l28,12a8.74,8.74,0,0,0,12.12-9.08L791.34,530.45a8.75,8.75,0,0,0-13.93-6L648.29,621.27A8.74,8.74,0,0,0,650.1,636.3Z"/><path class="cls-1" d="M311.37,107.68h.24l71.83,1.79a9.62,9.62,0,0,1,8.37,5.27l134.3,132.65H881.64a19.24,19.24,0,0,1,19.24,19.24V698.69a19.24,19.24,0,0,1-19.24,19.24H749.76L692.68,851.44a9.69,9.69,0,0,1-8.9,5.87h-.24l-71.83-1.79a9.62,9.62,0,0,1-8.37-5.27l-134-132.32H116.72a19.24,19.24,0,0,1-19.24-19.24V266.63a19.24,19.24,0,0,1,19.24-19.24H245.24l57.23-133.84a9.68,9.68,0,0,1,8.9-5.87m27.52,139.71h56.88L355,209.65l-16.14,37.74m301.23,508,16-37.41H599.74l40.38,37.41M311.44,77.68h-.07a39.61,39.61,0,0,0-36.48,24.08L225.44,217.39H116.72a49.3,49.3,0,0,0-49.24,49.24V698.69a49.3,49.3,0,0,0,49.24,49.24H457.06L580,869.37a39.64,39.64,0,0,0,31,16.14l71.83,1.79h1a39.61,39.61,0,0,0,36.48-24.08l49.3-115.3H881.64a49.3,49.3,0,0,0,49.24-49.24V266.63a49.3,49.3,0,0,0-49.24-49.24H538.43L415.14,95.62a39.64,39.64,0,0,0-30.95-16.14l-71.83-1.79Z"/></g></svg>