<svg xmlns="http://www.w3.org/2000/svg" xmlns:xlink="http://www.w3.org/1999/xlink" viewBox="0 0 1000 1000"><defs><style>.cls-1,.cls-14{fill:none;}.cls-2{fill:#050606;}.cls-3{fill:#fbb217;}.cls-4{fill:url(#linear-gradient);}.cls-5{fill:#f9f4e8;}.cls-14,.cls-6{stroke:#070808;stroke-miterlimit:10;stroke-width:5px;}.cls-6{fill:url(#linear-gradient-2);}.cls-7{clip-path:url(#clip-path);}.cls-8{fill:url(#linear-gradient-3);}.cls-9{fill:url(#linear-gradient-4);}.cls-10{fill:url(#linear-gradient-5);}.cls-11{fill:url(#linear-gradient-6);}.cls-12{fill:url(#linear-gradient-7);}.cls-13{fill:url(#linear-gradient-8);}.cls-15{fill:url(#linear-gradient-9);}</style><linearGradient id="linear-gradient" x1="349.37" y1="864.36" x2="714.45" y2="217.39" gradientUnits="userSpaceOnUse"><stop offset="0" stop-color="#f8b219"/><stop offset="1" stop-color="#fbc25c"/></linearGradient><linearGradient id="linear-gradient-2" x1="898.35" y1="916.28" x2="468.36" y2="1334.61" gradientTransform="translate(-187.27 -676)" gradientUnits="userSpaceOnUse"><stop offset="0" stop-color="#f8b219"/><stop offset="1" stop-color="#f8b219"/></linearGradient><clipPath id="clip-path"><rect class="cls-1" x="325.12" y="253.02" width="367.74" height="367.74" transform="translate(-161.24 463.95) rotate(-42.95)"/></clipPath><linearGradient id="linear-gradient-3" x1="474.71" y1="1336.1" x2="893.04" y2="876.92" gradientTransform="translate(-758.94 96.79) rotate(-42.95)" xlink:href="#linear-gradient"/><linearGradient id="linear-gradient-4" x1="468.12" y1="1330.09" x2="886.44" y2="870.91" gradientTransform="translate(-758.94 96.79) rotate(-42.95)" xlink:href="#linear-gradient"/><linearGradient id="linear-gradient-5" x1="352.71" y1="1224.95" x2="771.03" y2="765.77" gradientTransform="translate(-758.94 96.79) rotate(-42.95)" xlink:href="#linear-gradient"/><linearGradient id="linear-gradient-6" x1="498.66" y1="1357.91" x2="916.98" y2="898.73" gradientTransform="translate(-758.94 96.79) rotate(-42.95)" xlink:href="#linear-gradient"/><linearGradient id="linear-gradient-7" x1="486.08" y1="1346.46" x2="904.4" y2="887.27" gradientTransform="translate(-758.94 96.79) rotate(-42.95)" xlink:href="#linear-gradient"/><linearGradient id="linear-gradient-8" x1="639.01" y1="1485.78" x2="1057.34" y2="1026.6" gradientTransform="translate(-758.94 96.79) rotate(-42.95)" xlink:href="#linear-gradient"/><linearGradient id="linear-gradient-9" x1="203.13" y1="870.6" x2="794.59" y2="366.93" xlink:href="#linear-gradient"/></defs><title>Folder</title><g id="Folder"><path class="cls-2" d="M897.09,518.84l-18.68-20.06V451.1a29.82,29.82,0,0,0-29.81-29.82H806.26L560.41,157.21,370.17,334.32H279.62a29.82,29.82,0,0,0-29.81,29.82v82.24l-20.49,19.08,20.49,22v7.72H199.75c-16.46,0-27.21,11.22-24,25.07l71.87,311h630.8v-295Z"/><path class="cls-3" d="M207.31,793.74V324.14a32.35,32.35,0,0,1,32.31-32.32H542.74a32.36,32.36,0,0,1,32.32,32.32v27.33a27.34,27.34,0,0,0,27.31,27.31H808.6a32.35,32.35,0,0,1,32.31,32.32V793.74Z"/><path class="cls-2" d="M542.74,294.32a29.82,29.82,0,0,1,29.82,29.82v27.33a29.81,29.81,0,0,0,29.81,29.81H808.6a29.82,29.82,0,0,1,29.81,29.82V791.24H209.81V324.14a29.82,29.82,0,0,1,29.81-29.82H542.74m0-5H239.62a34.85,34.85,0,0,0-34.81,34.82v472.1h638.6V411.1a34.86,34.86,0,0,0-34.81-34.82H602.37a24.84,24.84,0,0,1-24.81-24.81V324.14a34.86,34.86,0,0,0-34.82-34.82Z"/><path class="cls-4" d="M207.31,793.74V324.14a32.35,32.35,0,0,1,32.31-32.32H542.74a32.36,32.36,0,0,1,32.32,32.32v27.33a27.34,27.34,0,0,0,27.31,27.31H808.6a32.35,32.35,0,0,1,32.31,32.32V793.74Z"/><path class="cls-2" d="M542.74,294.32a29.82,29.82,0,0,1,29.82,29.82v27.33a29.81,29.81,0,0,0,29.81,29.81H808.6a29.82,29.82,0,0,1,29.81,29.82V791.24H209.81V324.14a29.82,29.82,0,0,1,29.81-29.82H542.74m0-5H239.62a34.85,34.85,0,0,0-34.81,34.82v472.1h638.6V411.1a34.86,34.86,0,0,0-34.81-34.82H602.37a24.84,24.84,0,0,1-24.81-24.81V324.14a34.86,34.86,0,0,0-34.82-34.82Z"/><rect class="cls-5" x="294.51" y="202.61" width="457.37" height="499.09" transform="translate(-167.83 477.73) rotate(-42.95)"/><path class="cls-2" d="M520.41,117.21,857.09,478.84,526,787.09,189.32,425.46,520.41,117.21m.25-7.07L517,113.55,185.91,421.8l-3.66,3.41,3.41,3.66L522.33,790.5l3.41,3.65,3.66-3.4L860.49,482.5l3.66-3.41-3.41-3.66L524.07,113.8l-3.41-3.66Z"/><rect class="cls-6" x="325.12" y="253.02" width="367.74" height="367.74" transform="translate(-161.24 463.95) rotate(-42.95)"/><g class="cls-7"><path class="cls-8" d="M515.83,789.47a57.5,57.5,0,0,1-31.25,15.08,54,54,0,0,1-39.76-10.1l-1.62-.61L440,790.46l-94.21-85.57c-28.36-25.81-33.66-68.91-12.58-102.58l89.87-143.56c21.08-33.68,62.3-47.73,98-33.41L639.94,473a53.94,53.94,0,0,1,31.22,33.5c5.3,16.25,2.8,34.41-6.85,49.83L526.4,776.64A64.15,64.15,0,0,1,515.83,789.47Zm-42.55-33.21a6.6,6.6,0,0,0,4.78,1.12c3-.42,5.79-2.55,8-6L623.93,531.06c2.18-3.48,2.87-7,1.94-9.8a6.38,6.38,0,0,0-3.57-4l-.09,0L503.39,469.55c-14.28-5.73-31.07.35-39.9,14.47L373.62,627.58c-8.86,14.15-7,31.87,4.34,42.15l.19.18,91.27,82.88,1,.37Z"/><path class="cls-9" d="M499.23,694.36a30,30,0,0,1-16.34,7.87,28.37,28.37,0,0,1-23-7.06l-.45-.41-43.92-39.88c-14.48-13.1-17.23-35-6.53-52.1L451,535.58c10.68-17.05,31.58-24.15,49.71-16.88l56.4,22.62.13.07a28.41,28.41,0,0,1,15.52,17.24,30.87,30.87,0,0,1-3.54,26L504.7,687.72A32.77,32.77,0,0,1,499.23,694.36ZM479,673.93c.22,0,.83-.29,1.51-1.37L545,569.43a2.68,2.68,0,0,0,.59-1.94L490.1,545.22c-5.27-2.11-11.52.21-14.85,5.52L433.18,618c-3.23,5.16-2.66,11.79,1.29,15.55l.29.27Z"/><path class="cls-10" d="M336.73,541.26a15.62,15.62,0,0,1-8.5,4.1,14.76,14.76,0,0,1-12-3.67l-.24-.22-22.85-20.75a21.27,21.27,0,0,1-3.4-27.11l21.9-35a21.26,21.26,0,0,1,25.86-8.78l29.36,11.77.06,0a14.75,14.75,0,0,1,8.08,9,16.07,16.07,0,0,1-1.84,13.51l-33.59,53.67A17.06,17.06,0,0,1,336.73,541.26Zm-10.54-10.63c.11,0,.43-.15.78-.71l33.6-53.67c.35-.56.34-.9.3-1L332,463.65a6.45,6.45,0,0,0-7.73,2.87l-21.89,35a6.5,6.5,0,0,0,.67,8.09l.15.14Z"/><path class="cls-11" d="M734.64,289.58a266.66,266.66,0,0,1-22,18.2c-40,29.83-97,58.59-160.7,81s-126.11,35.71-176,37.51c-24.07.87-43.82-1-58.7-5.54a59,59,0,0,1-16.49-7.54c-.55-.31-1.08-.64-1.6-1A24.92,24.92,0,0,1,290,383.4,52.24,52.24,0,0,1,295,372.15c6.09-10.71,16.39-22.32,30.63-34.54a2.73,2.73,0,0,0,.91-2.61c-6.75-35.48,3.35-74.34,28.46-109.44s63.8-63.3,108.7-79.1c44.73-15.74,92.09-18.16,133.36-6.82,40.93,11.24,73.24,34.75,91,66.2a2.76,2.76,0,0,0,2.36,1.4c20.3.3,36.92,2.72,49.41,7.21,7.87,2.83,13.72,6.28,17.88,10.56.42.43.83.88,1.21,1.34a23.9,23.9,0,0,1,3.4,26.42,63.39,63.39,0,0,1-7.37,13.9A137.71,137.71,0,0,1,734.64,289.58ZM351.37,378.42a216.8,216.8,0,0,0,22.83.26c44.56-1.6,103.57-14.3,161.91-34.84s112.32-47.6,148-74.23a222.73,222.73,0,0,0,17.34-14.23c-3.48-.27-7.4-.45-11.8-.51a50.58,50.58,0,0,1-43.17-25.63h0c-11.28-20-33.92-35.94-62.09-43.68-32-8.79-69.28-6.72-104.94,5.83S413.25,226,393.7,253.28c-17.2,24-24.64,50.58-20.41,72.81a50.55,50.55,0,0,1-16.69,47.67C354.69,375.4,353,377,351.37,378.42ZM717.46,236.57Z"/><path class="cls-12" d="M608.12,280.21a127.21,127.21,0,0,1-10.49,8.67c-18.82,14-45.63,27.56-75.48,38.07s-59.21,16.75-82.69,17.6c-11.54.42-21.06-.5-28.32-2.71a31,31,0,0,1-8.43-3.85c-.3-.18-.6-.37-.89-.57a14.81,14.81,0,0,1-5.4-17.12,27.89,27.89,0,0,1,2.52-5.71c2.89-5.08,7.62-10.51,14.08-16.16-2.89-17.05,2.05-35.54,14-52.2,12.08-16.88,30.56-30.34,52-37.9,21.7-7.63,43.79-8.75,63.87-3.23,19.42,5.33,34.87,16.43,43.63,31.3,9.29.21,17,1.39,22.89,3.51a24.67,24.67,0,0,1,9.52,5.69c.24.25.47.5.69.76a15.11,15.11,0,0,1,1.22,1.61,14.33,14.33,0,0,1,.89,14.06,33,33,0,0,1-3.72,7A67.48,67.48,0,0,1,608.12,280.21ZM435.73,316.06c.86,0,1.76,0,2.7-.07,20.38-.73,47.43-6.57,74.23-16s51.55-21.83,67.88-34l1.61-1.22a26.78,26.78,0,0,1-20-13.35h0c-9.72-17.25-39.94-28-73.68-16.12s-50.83,39.84-47.2,58.9A26.75,26.75,0,0,1,435.73,316.06Zm151.34-78.69Z"/><path class="cls-13" d="M773.13,369.08a92.81,92.81,0,0,1-.93,9.85c-2.46,16.89-9.29,37.62-19.23,58.37s-21.83,39.05-33.46,51.56c-5.72,6.14-11.09,10.57-16,13.16a22.85,22.85,0,0,1-6.31,2.36c-.25.06-.5.12-.75.16a10.75,10.75,0,0,1-11.57-6,20.15,20.15,0,0,1-1.65-4.24,47.94,47.94,0,0,1-1.06-15.54c-10.26-7.28-17.22-19.32-19.66-34-2.47-14.9.11-31.31,7.26-46.23,7.23-15.08,18-27,31.17-34.5,12.73-7.24,26.37-9.48,38.53-6.34,4.88-4.66,9.44-8,13.57-10a17.84,17.84,0,0,1,7.82-2l.74,0a10.31,10.31,0,0,1,1.45.2,10.42,10.42,0,0,1,7.69,6.77,23.87,23.87,0,0,1,1.68,5.51A49,49,0,0,1,773.13,369.08ZM702.94,476.13c.44-.45.89-.93,1.36-1.43,10.09-10.85,21-27.76,29.93-46.38s15.28-37.73,17.41-52.38c.07-.5.14-1,.2-1.46a19.46,19.46,0,0,1-17.13,3.41h0c-13.86-3.86-34.92,6.15-46.16,29.6s-5.65,46.61,6,54.54A19.4,19.4,0,0,1,702.94,476.13Zm37.35-118.26Z"/></g><rect class="cls-14" x="325.12" y="253.02" width="367.74" height="367.74" transform="translate(-161.24 463.95) rotate(-42.95)"/><path class="cls-15" d="M205.63,793.74,133.3,480.82a21.34,21.34,0,0,1,3.93-18.49c4.87-6.13,13.08-9.64,22.52-9.64h569c17.54,0,34.6,12.12,38,27l72.59,314Z"/><path class="cls-2" d="M728.73,455.19c16.47,0,32.41,11.22,35.61,25.07l71.88,311H207.61l-71.87-311c-3.2-13.85,7.55-25.07,24-25.07h569m0-5h-569c-10.21,0-19.13,3.86-24.48,10.58a23.86,23.86,0,0,0-4.41,20.62l71.88,311,.9,3.87H842.51l-1.42-6.13-71.88-311c-1.82-7.89-7.09-15.24-14.82-20.69a45,45,0,0,0-25.66-8.25Z"/><path class="cls-2" d="M520.41,117.21,766.26,381.28H808.6a29.82,29.82,0,0,1,29.81,29.82v47.68l18.68,20.06-18.68,17.39v295H207.61l-71.87-311c-3.2-13.85,7.55-25.07,24-25.07h50.06v-7.72l-20.49-22,20.49-19.08V324.14a29.82,29.82,0,0,1,29.81-29.82h90.55L520.41,117.21m1.52-42.4L500,95.25,318.37,264.32H239.62a59.89,59.89,0,0,0-59.81,59.82v69.18L168.87,403.5l-22,20.44,2,2.17c-13.44,2.33-25.2,9-33.22,19.1a49,49,0,0,0-9.2,41.81l71.88,311,5.37,23.24H868.41v-312l9.12-8.48,22-20.45L879,458.4,868.41,447V411.1a59.88,59.88,0,0,0-59.81-59.82H779.32l-237-254.51-20.44-22Z"/></g></svg>