<svg xmlns="http://www.w3.org/2000/svg" xmlns:xlink="http://www.w3.org/1999/xlink" viewBox="0 0 1000 1000"><defs><style>.cls-1{fill:url(#linear-gradient);}.cls-2{fill:#f9f4e9;stroke:#000;stroke-linecap:round;stroke-linejoin:round;stroke-width:30px;}</style><linearGradient id="linear-gradient" x1="60.81" y1="511.3" x2="921.97" y2="511.3" gradientUnits="userSpaceOnUse"><stop offset="0" stop-color="#f8b219"/><stop offset="1" stop-color="#eeca72"/></linearGradient></defs><title>Game</title><g id="Folder"><path class="cls-1" d="M148.32,140.15A31.28,31.28,0,0,0,152,151.39a52,52,0,0,0,6.6,9.65,77.48,77.48,0,0,0,17.86,14.77,122.85,122.85,0,0,0,20.82,10.29l2.69,1.08,2.76,1,5.5,1.92,5.6,1.66c1.87.54,3.71,1.14,5.62,1.58a336.14,336.14,0,0,0,46.09,8.32c15.57,1.79,31.28,2.64,47,3.15l11.8.19c2,0,3.92.09,5.89.08l5.91,0,11.81-.1,11.82-.36c3.94-.15,7.87-.19,11.81-.4l11.82-.61c3.92-.22,7.92-.36,11.72-.69s7.67-.55,11.5-1q23-2.25,45.63-6.6c7.55-1.43,15.06-3.09,22.55-4.85,3.74-.87,7.47-1.83,11.2-2.74l11.16-3c14.84-4.13,29.54-8.84,44.16-14s29.12-10.68,43.6-16.56,28.95-12.1,43.55-18.42,29.37-12.84,44.74-19.2c7.72-3.17,15.62-6.26,23.89-9.23a267.65,267.65,0,0,1,26.55-8.12c1.22-.29,2.38-.6,3.64-.86l3.8-.78c2.47-.54,5.28-.92,8-1.35l1-.15,1.08-.12,2.16-.23,2.17-.22c.72-.07,1.43-.14,2.23-.17,3.11-.14,6.12-.32,9.58-.16l2.51.09c.43,0,.83,0,1.28.07l1.36.13q2.71.27,5.43.63c1.89.3,3.86.72,5.78,1.13a58.66,58.66,0,0,1,6,1.66c1,.33,2,.66,3,1s2.07.83,3.1,1.26,2.07.92,3.1,1.4a34,34,0,0,1,3.06,1.56c2,1.16,4,2.38,6,3.66s3.79,2.84,5.62,4.34a75.91,75.91,0,0,1,16.65,20.4c.27.46.5.88.71,1.3l.64,1.27,1.26,2.56L824,140.2c.38.84.67,1.63,1,2.45q.94,2.44,1.86,4.91c.55,1.61,1,3.1,1.44,4.67l.68,2.32.33,1.17.26,1.1,1,4.38.48,2.2c.16.73.25,1.39.37,2.09l.68,4.16.33,2.08.23,2,.45,4c.33,2.69.44,5.14.62,7.68.08,1.26.18,2.55.23,3.78l.11,3.65c.06,2.42.17,4.91.13,7.23l0,7.07-.23,6.88c-.06,2.32-.2,4.55-.34,6.79l-.21,3.36-.1,1.68c0,.56-.07,1.12-.13,1.74l-.74,7.31c-.14,1.22-.24,2.44-.4,3.66l-.54,3.67c-.38,2.44-.72,4.89-1.14,7.34l-1.45,7.33c-.26,1.22-.47,2.45-.78,3.66l-.9,3.66c-.63,2.43-1.19,4.88-1.9,7.29A230.83,230.83,0,0,1,815,300.06a233.78,233.78,0,0,1-14.21,27,235.4,235.4,0,0,1-17.58,24.62A261.12,261.12,0,0,1,763,373.56c-1.74,1.77-3.57,3.35-5.35,5s-3.6,3.32-5.44,4.87l-5.53,4.72-5.62,4.52c-7.55,5.91-15.25,11.52-23.11,16.62L715,411.26l-3,1.86c-2,1.22-4,2.48-6,3.68-4,2.35-8,4.74-12,6.92-32.21,17.8-65.35,30.77-98.34,41.33s-66.06,18.47-98.48,25.42c-16.19,3.49-32.24,6.65-47.8,9.76-7.76,1.56-15.38,3.11-22.65,4.69s-14.19,3.24-19.76,4.85c-.75.2-1.32.4-1.94.59l-.92.29-1.45.43-3.69,1.08-3.55,1-1.77.49-1.7.44-3.42.9L382,516.61c-8.69,2.09-17,4-25.1,5.69-16.23,3.47-31.8,6.63-46.95,9.93s-29.84,6.7-43.75,10.45c-6.95,1.87-13.68,3.84-20.07,5.89s-12.41,4.19-17.75,6.39l-1,.4-.94.42-1.9.82c-1.23.55-2.35,1.1-3.52,1.64-2.11,1.08-4.17,2.13-5.58,3.06l-.56.34-.29.16-.2.16c-.28.2-.56.4-.85.59l-.21.14-.12.12L213,563c-.16.14-.43.3-.41.37a.67.67,0,0,1-.17.2.39.39,0,0,0,.22-.05l0,0s0,0,.11-.07a4,4,0,0,0,.34-.23c.22-.17.33-.32.78-.69a6.38,6.38,0,0,0,.53-.51l.24-.28a4.14,4.14,0,0,1,.32-.34,11.85,11.85,0,0,0,1.37-1.7,17.92,17.92,0,0,0,1.65-2.38c.2-.39.57-.92.86-1.44s.58-1.06.84-1.61c.12-.27.25-.55.36-.82s.3-.61.44-.92c.29-.63.55-1.28.78-1.93s.39-1.3.66-2a22.19,22.19,0,0,0,.64-2.15c.18-.72.32-1.46.45-2.19s.31-1.47.42-2.21.17-1.49.21-2.24.15-1.4.17-2.12a39.08,39.08,0,0,0-.46-7.57,17.22,17.22,0,0,0-.56-2.86,4.8,4.8,0,0,1-.15-.61l-.11-.51a8.54,8.54,0,0,0-.29-1c-.09-.32-.27-.72-.34-1s-.11-.43-.18-.64-.15-.42-.24-.63-.23-.43-.21-.5c0-.39-.44-.91-.23-.82,0,0,0,0,.06,0s.28.24.4.36.72.73,1.13,1.18l.32.36c.12.13.31.3.46.44l.95.92.46.47c.16.17.39.35.59.53l1.19,1.08c3.3,3,7.57,6.42,12.36,9.94.13.09.33.25.4.29l.25.16.49.32a10.92,10.92,0,0,0,1,.64l1.05.65,1.12.64c1.55.85,3.18,1.72,5,2.54A100.51,100.51,0,0,0,261,546.83a160.07,160.07,0,0,0,15.61,3.83c5.61,1.09,11.57,2,17.77,2.7A371.71,371.71,0,0,0,334,555.53c27.77.13,57.3-1.93,87.44-5s61.05-7.26,92.61-11.55,63.8-8.85,97.62-12.42c17-1.78,34.29-3.3,52.63-4.1,9.17-.41,18.59-.63,28.46-.51,4.93.06,10,.2,15.18.47s10.53.65,16.11,1.23,11.31,1.33,17.42,2.4,12.49,2.43,19.32,4.31A167.23,167.23,0,0,1,782.73,538a140.42,140.42,0,0,1,25,13.84,125.29,125.29,0,0,1,25.61,23.73,121.09,121.09,0,0,1,19,33c1.14,2.92,2,5.77,3,8.7s1.57,5.71,2.22,8.54,1.15,5.59,1.55,8.28l.55,4,.25,2c.1.85.06.47.1.76.17,1.08.28,2.16.46,3.24s.33,2.15.57,3.22a120.26,120.26,0,0,0,8.81,26.87c2.15,4.79,4.71,9.82,7.7,15.26.72,1.34,1.55,2.77,2.32,4.16l2.52,4.37,5.6,9.48c2,3.35,4.18,7,6.54,11.06s4.91,8.54,7.71,13.93l2.15,4.26,2.24,4.74c.78,1.73,1.57,3.54,2.33,5.32.82,2,1.6,4,2.39,6.08l1.21,3.46.59,1.74c.19.55.39,1.21.59,1.88.4,1.33.79,2.66,1.16,4,.19.68.37,1.29.55,2l.55,2.29c.36,1.52.7,3.06,1,4.6s.62,3.47.89,5.2A113.68,113.68,0,0,1,919,789.51c.06,1,.09,2.06.1,3.19s0,2.23,0,3.35,0,2.23-.08,3.34-.11,2.29-.21,3.51c-.2,2.42-.47,4.84-.8,7.24-.14,1.18-.38,2.48-.62,3.74s-.49,2.53-.77,3.79a105.48,105.48,0,0,1-4.5,15.05c-1,2.43-2,4.82-3.11,7.19-.55,1.18-1.13,2.36-1.72,3.52s-1.18,2.19-1.8,3.28q-1.86,3.24-3.89,6.38c-1.31,1.94-2.64,3.79-4,5.64-.69.92-1.4,1.83-2.12,2.73s-1.35,1.63-2,2.44q-2.05,2.36-4.2,4.62c-.72.77-1.44,1.51-2.08,2.11l-2,1.91q-2,1.89-4.1,3.71c-1.3,1.11-2.52,2.08-3.81,3.1s-2.57,2-3.84,2.94q-3.48,2.48-7.07,4.8c-2.14,1.32-4.29,2.6-6.47,3.84-4,2.23-8.07,4.28-11.57,5.85L845.47,898c-.9.4-1.69.72-2.54,1.08-1.66.69-3.37,1.39-5,2l-4.68,1.73-2.32.84-2.2.74A322.47,322.47,0,0,1,797,913.2c-9.7,2.21-18.88,3.94-27.86,5.51l-6.68,1.13-6.58,1-3.33.52-3.59.51c-2.39.34-4.8.7-7.18,1q-14.32,1.83-28.44,2.9c-37.63,2.81-74,1.85-109.09-.83s-69.08-7.32-102.06-12.51-65-11.08-95.76-16.37c-15.37-2.64-30.38-5.1-44.81-7.13s-28.25-3.59-40.49-4.3c-6.09-.35-11.76-.46-16.56-.32a81.79,81.79,0,0,0-11,.95,13.38,13.38,0,0,0-1.63.38c-.13,0,.26,0,.44-.18s-.16.06-.34.13l-.58.23-1.16.45c-.78.3-1.57.57-2.35.85a91.74,91.74,0,0,1-9.69,2.63,79.62,79.62,0,0,1-10,1.61,90.42,90.42,0,0,1-10.42.59l-5.41-.11-5.58-.37a172,172,0,0,1-24.34-4.12l-3.29-.76-3.4-.87c-.57-.15-1.13-.27-1.73-.43l-1.81-.53-3.59-1-3.61-.95-.91-.24-1-.3-2-.6-3.85-1.12-1.95-.54-1-.26-1.05-.33c-2.84-.9-5.49-1.65-8.43-2.47-1.57-.52-3.09-1-4.62-1.47s-3.11-.91-4.7-1.33-3.12-.82-4.72-1.18l-1.21-.27c-.41-.1-.88-.25-1.32-.37-.88-.25-1.76-.49-2.65-.72-1.79-.45-3.63-.87-5.43-1.23s-3.87-.84-5.92-1.08a52.5,52.5,0,0,1-3.61-11.49,62,62,0,0,1-1.48-11.1c-.12-1.79-.22-3.59-.3-5.42s-.11-3.68-.14-5.47.19-3.39.31-5.11.27-3.44.44-5.11l.13-1.26.19-1.2.4-2.4.86-4.85.46-2.37.24-1.19.3-1.11,1.24-4.5c.43-1.51.86-3,1.31-4.49l.67-2.21c.24-.73.51-1.41.76-2.12l1.58-4.23c.56-1.38,1.15-2.76,1.73-4.07a129,129,0,0,1,17.1-28.42c1.67-2,3.33-4,5.05-6,.87-1,1.74-1.93,2.62-2.87l2.67-2.68a130.9,130.9,0,0,1,11.24-9.83c3.87-2.92,7.84-5.67,11.94-8.18,2.06-1.29,4.1-2.35,6.19-3.45s4.2-2.11,6.33-3.09c1.07-.48,2.14-1,3.22-1.43l1.61-.68.82-.34c.28-.11.45-.19,1-.41,4-1.47,8.08-3,11.82-4a189.36,189.36,0,0,1,21.73-5.18,252.59,252.59,0,0,1,36.85-3.56c11.21-.3,21.57,0,31.46.58C351,711.24,369,713.48,386.31,716s33.88,5.32,50.07,8.18c32.37,5.72,63.32,11.65,93.63,16.65s59.82,9.26,88.57,11.83,56.62,3.46,82.95,1.92c6.57-.41,13-.95,19.4-1.66,1.59-.17,3.15-.39,4.73-.58L728,752l2.61-.37,5.3-.75,5.18-.8c6.82-1.08,13.4-2.25,19.35-3.47s11.26-2.56,14.71-3.62l.66-.2c.21-.06.33-.12.51-.17s.64-.22,1-.31.36-.15.55-.21l.24-.07h0c.17,0-.31.16-.82.5a10.29,10.29,0,0,0-1.29.81,18.35,18.35,0,0,0-2.08,1.44c-.48.34-1,.72-1.47,1.1s-.92.77-1.45,1.24-1.28,1.09-1.89,1.67c-.31.3-.61.59-.9.9s-.64.65-1,1c-.76.77-1.48,1.57-2.17,2.39-.37.44-.62.79-1.07,1.32s-.83,1-1.22,1.52c-.8,1-1.52,2.1-2.25,3.23s-1.63,2.5-2.35,3.8c-.37.66-.71,1.31-1,2s-.75,1.42-1.09,2.15c-.7,1.45-1.31,2.94-1.88,4.45a63.06,63.06,0,0,0-2.81,9.29c-.17.77-.33,1.55-.46,2.32l-.36,2.26c-.22,1.41-.38,2.83-.47,4.26l-.11,2c0,.62-.06,1.23-.07,1.84s0,1.23,0,1.85l.06,1.69c.05,2,.37,4.19.54,5.53.11.75.28,1.59.42,2.25s.21,1.11.35,1.66l.38,1.42c.1.37.21.73.33,1.1.07.19.13.37.15.44l.1.32c.08.21.16.41.25.62a2.18,2.18,0,0,0,.22.48c0-.06,0-.09-.06-.2s-.19-.45-.29-.7l-.52-1.12c-.84-1.74-2.18-4.28-3.78-7.17s-3.46-6.18-5.49-9.75-4.16-7.33-6.38-11.35l-3.35-6.11c-1.13-2.14-2.26-4.2-3.4-6.41-2.26-4.32-4.52-8.9-6.74-13.53s-4.38-9.48-6.45-14.47a285.63,285.63,0,0,1-18.87-65c-.5-2.86-.85-5.76-1.26-8.64s-.66-5.8-1-8.7c0-.2-.11-1.08-.08-.73l0,.52c0,.35.1.69.17,1,.13.7.26,1.6.48,2.36a24.13,24.13,0,0,0,.74,2.73c.27,1,.65,2,1,3a44.16,44.16,0,0,0,7.14,12.18,38.66,38.66,0,0,0,8,7.46,17.78,17.78,0,0,0,4,2.16c.5.15.18-.06-.7-.36A60.3,60.3,0,0,0,705.54,686c-2.38-.33-5-.62-7.83-.85s-5.75-.42-8.83-.55c-6.14-.27-12.75-.34-19.59-.24-13.68.19-28.31,1-43.27,2s-30.36,2.49-46,4l-47.49,4.75c-32.07,3.25-64.87,6.4-98.56,8.57-16.84,1.07-33.93,1.85-51.32,2.2s-35.1.25-53.26-.66a517.83,517.83,0,0,1-56.08-5.68c-9.65-1.58-19.47-3.53-29.48-6a305.27,305.27,0,0,1-30.61-9.28,240.19,240.19,0,0,1-31.52-14.11c-5.28-2.82-10.57-6-15.79-9.44L162,658.15l-3.89-2.78c-1.29-.92-2.57-1.91-3.84-2.9L152.39,651l-.95-.75-.78-.64A297.75,297.75,0,0,1,126.81,628l-3-3.17c-.52-.54-1-1-1.53-1.61l-1.57-1.75L117.55,618c-.51-.6-1-1.16-1.54-1.79l-1.59-2c-2.12-2.65-4.17-5.13-6.33-8.23l-3.15-4.49c-1.07-1.62-2.15-3.36-3.19-5-2.06-3.22-4.21-7.34-6.18-11.25-.49-.93-1-2.1-1.5-3.21l-1.44-3.38-1.39-3.4c-.45-1.15-.9-2.52-1.33-3.77s-.84-2.58-1.23-3.87l-.59-1.95c-.19-.63-.38-1.3-.55-2.05-.71-2.89-1.33-5.8-1.88-8.72a102.42,102.42,0,0,1-1.4-19.53c0-1.71.07-3.37.22-5.11s.35-3.49.58-5.22.48-3.47.78-5.19.72-3.42,1.13-5.12.87-3.39,1.35-5.07,1.05-3.24,1.62-4.86,1.19-3.17,1.82-4.74c.32-.78.64-1.59,1-2.32l1-2.17c.7-1.45,1.43-2.88,2.17-4.3s1.53-2.86,2.3-4.08c1.56-2.52,3.2-5.06,4.88-7.44,1.63-2.19,3.32-4.34,5.05-6.45.44-.54.87-1.05,1.28-1.49l1.25-1.39,2.55-2.73c1.76-1.89,3.37-3.37,5-4.92l2.52-2.29c.43-.4.85-.75,1.24-1.07l1.2-1c1.61-1.3,3.26-2.63,4.87-3.86s3.11-2.24,4.68-3.34,3.05-2,4.56-3l2.25-1.42,1.13-.71,1.08-.62,4.33-2.47,1.09-.61,1-.55,2.09-1.08c5.61-2.94,10.83-5.23,16-7.44,2.53-1,5.09-2.05,7.57-3l3.7-1.36,1.85-.67,1.81-.62c9.69-3.35,18.95-6,28-8.38s17.82-4.32,26.46-6.12c17.28-3.58,34-6.4,50.38-9s32.35-4.86,47.63-7.2c7.63-1.18,15.08-2.33,22.06-3.55l5.12-.92,2.43-.47,1.22-.24,1.15-.23,2.28-.47,2.12-.46.53-.12.92-.22,2-.47c1.31-.31,2.67-.64,3.88-.88,10-2.16,18.78-3.59,27.3-4.9s16.66-2.4,24.7-3.49c16-2.17,31.61-4.21,46.95-6.39,30.65-4.36,60.41-9.5,89.08-16.41s56.16-15.49,81-26.89,47-25.42,63.73-42.7l3.08-3.27c1-1.09,1.95-2.25,2.94-3.36l1.47-1.68,1.37-1.73c.89-1.17,1.87-2.29,2.73-3.48a139.49,139.49,0,0,0,9.58-14.72,141.74,141.74,0,0,0,7.46-16c.55-1.38,1-2.82,1.5-4.23l.75-2.12c.26-.7.43-1.45.66-2.17l1.3-4.36c.38-1.48.72-3,1.09-4.47l.56-2.24c.17-.75.29-1.52.44-2.29l.9-4.59c.08-.36.14-.8.21-1.24l.2-1.31.4-2.61c.27-1.74.55-3.5.74-5.18l.66-5.1.48-4.93c.2-1.68.26-3.2.37-4.78l.16-2.36c0-.77,0-1.48.07-2.23a81.85,81.85,0,0,0-.55-14.44c-.06-.37-.09-.83-.14-1.13a4.52,4.52,0,0,1-.14-.75c0-.12,0-.3,0-.37l0-.15a1,1,0,0,1,0-.17l0-.09s0-.07,0,0,.78.76,2,1.52a3.16,3.16,0,0,0,1,.55,2.61,2.61,0,0,0,.93.46,1.66,1.66,0,0,1,.41.16,1.66,1.66,0,0,0,.38.11c.11,0,.32,0,.36,0a.43.43,0,0,0,.19,0c.13,0,.35-.07.26-.08s0-.11-.08-.19a2,2,0,0,1-.52-.2l-.13-.07s-.15,0-.22,0l-.48-.08a17.05,17.05,0,0,0-2.43-.33,4.58,4.58,0,0,0-.77,0h-.83l-.84,0h-.41l-.48,0c-1.3.1-2.49.06-4,.25l-2.13.2c-.71.07-1.5.21-2.25.31a192.3,192.3,0,0,0-19.92,4.06c-7,1.77-14.29,3.85-21.67,6.05-14.79,4.43-30,9.36-45.37,14.26s-31,9.8-46.82,14.32-31.79,8.83-48,12.59-32.52,7-49,9.68-33.08,4.65-49.76,5.87-33.41,1.73-50.12,1.31c-4.18-.05-8.35-.28-12.52-.47s-8.23-.5-12.31-.77l-12.21-.86c-4.07-.28-8.15-.72-12.21-1.08l-12.2-1.18-12.18-1.44-6.09-.73c-2-.24-4.06-.57-6.08-.85l-12.16-1.76c-16.18-2.67-32.3-5.69-48.25-9.72a340.09,340.09,0,0,1-47-15.41c-1.92-.74-3.8-1.65-5.68-2.5l-5.63-2.59L197.88,199l-2.76-1.42L192.43,196A131.67,131.67,0,0,1,172,181.86a83.49,83.49,0,0,1-16.48-18.57,55,55,0,0,1-5.33-11.14A32.35,32.35,0,0,1,148.32,140.15Z"/><path d="M799.07,495.07H748.3l55-241.15c8.19-35.86-15.49-71.3-52.89-79.15h0c-37.39-7.85-74.34,14.86-82.53,50.73L606.39,495.07h-2.92a95,95,0,0,0-13.75-.23L544.49,222.12c-6-36.26-41.53-61-79.34-55.21h0c-37.8,5.77-63.57,39.84-57.56,76.1l31.79,191.72c-26.8,3.06-47.58,24.92-47.58,51.45v36.06c0-28.63-24.19-51.84-54-51.84H307.22c-29.85,0-54,23.21-54,51.84v92.65A49.75,49.75,0,0,0,255.53,630V697.9c0,117,98.88,211.84,220.86,211.84H573.9a230.35,230.35,0,0,0,47.18-4.86l1,1.48C863.52,907.73,799.07,495.07,799.07,495.07Z"/><path class="cls-2" d="M209.51,481.36H748.75a0,0,0,0,1,0,0V658.82A206.79,206.79,0,0,1,542,865.61H416.3A206.79,206.79,0,0,1,209.51,658.82V481.36A0,0,0,0,1,209.51,481.36Z"/><path class="cls-2" d="M591.8,624.19h0c-37.39-7.85-61.07-43.29-52.89-79.16l83-363.67c8.18-35.86,45.13-58.58,82.53-50.73h0c37.39,7.85,61.07,43.29,52.89,79.16l-83,363.67C666.15,609.33,629.2,632,591.8,624.19Z"/><path class="cls-2" d="M499.39,606.71h0c-37.81,5.76-73.33-19-79.34-55.22L361.57,198.88c-6-36.27,19.76-70.34,57.57-76.11h0c37.81-5.76,73.33,19,79.34,55.22L557,530.61C563,566.87,537.2,600.94,499.39,606.71Z"/><rect class="cls-2" x="207.16" y="426.27" width="138.63" height="196.32" rx="53.16"/><rect class="cls-2" x="345.79" y="390.21" width="138.63" height="251.16" rx="53.16"/><path class="cls-2" d="M476.59,713.49S464.84,583.9,648.83,583.9V552.35H555.1S487,558,487,500.52s70.49-49.58,70.49-49.58H753.06s64.44,412.66-177,411.29"/><path d="M430.11,121.94c33.48,0,62.94,23.33,68.37,56.05L543.71,450.7c1.93-.09,3.73-.13,5.34-.13a82.64,82.64,0,0,1,8.4.37h2.93l61.51-269.58c7.09-31.08,35.78-52.28,67.64-52.28a72.29,72.29,0,0,1,14.89,1.55c37.39,7.85,61.07,43.29,52.89,79.16l-55,241.15h50.77S817.3,862.23,577.25,862.23h-1.2l-1-1.48a230.88,230.88,0,0,1-47.17,4.86H430.38c-122,0-220.87-94.85-220.87-211.84V585.9a50,50,0,0,1-2.35-15.14V478.1c0-28.62,24.2-51.83,54-51.83h30.54c29.85,0,54,23.21,54,51.83V442.05c0-26.53,20.78-48.39,47.58-51.46L361.58,198.88c-6-36.27,19.75-70.34,57.56-76.11a73,73,0,0,1,11-.83m0-22.07h0A96.43,96.43,0,0,0,415.53,101a92.42,92.42,0,0,0-60.23,35.45,85.25,85.25,0,0,0-16.45,65.91L367.48,375a75.58,75.58,0,0,0-38.65,38.38,79.18,79.18,0,0,0-37.08-9.14H261.21c-42.49,0-77,33.16-77,73.9v92.66a71.15,71.15,0,0,0,2.35,18.14v64.87a224.3,224.3,0,0,0,19.17,91.05,233,233,0,0,0,52.26,74.35,243.89,243.89,0,0,0,77.51,50.12,251.36,251.36,0,0,0,94.93,18.39h97.51a255.79,255.79,0,0,0,43.79-3.78,24.86,24.86,0,0,0,4.24.4h1.33c28.34,0,54.41-5.22,77.5-15.5A168.56,168.56,0,0,0,711.66,827c24.78-27.59,43.46-65.18,55.53-111.74,9.35-36,14.83-77.73,16.29-123.85,2.46-77.83-7.25-141.11-7.67-143.76-1.69-10.81-11.36-18.8-22.75-18.8H730.87l48.92-214.36a85,85,0,0,0-12.46-66.71,91.8,91.8,0,0,0-58-38.73A97.19,97.19,0,0,0,689.53,107,95.14,95.14,0,0,0,632.1,126.3a88.32,88.32,0,0,0-32.69,50.35L554.32,374.26,521.2,174.52a87.73,87.73,0,0,0-31.52-53.67,94.75,94.75,0,0,0-59.57-21Z"/></g></svg>