<svg xmlns="http://www.w3.org/2000/svg" xmlns:xlink="http://www.w3.org/1999/xlink" viewBox="0 0 1000 1000"><defs><style>.cls-1,.cls-6{fill:none;}.cls-2{fill:#070808;}.cls-3{fill:#f9f4e8;}.cls-4{fill:url(#linear-gradient);}.cls-5{fill:url(#linear-gradient-2);}.cls-6{stroke:#070808;stroke-linecap:round;stroke-linejoin:round;stroke-width:30px;}.cls-7{opacity:0.43;}.cls-8{clip-path:url(#clip-path);}.cls-9{fill:url(#linear-gradient-3);}</style><linearGradient id="linear-gradient" x1="456.65" y1="668.46" x2="534.77" y2="668.46" gradientUnits="userSpaceOnUse"><stop offset="0" stop-color="#f8b219"/><stop offset="1" stop-color="#fbc25c"/></linearGradient><linearGradient id="linear-gradient-2" x1="569.24" y1="668.46" x2="647.37" y2="668.46" gradientUnits="userSpaceOnUse"><stop offset="0" stop-color="#66beb9"/><stop offset="1" stop-color="#a1dadc"/></linearGradient><clipPath id="clip-path"><rect class="cls-1" x="132.34" y="1226.39" width="1920" height="1080.23"/></clipPath><linearGradient id="linear-gradient-3" x1="1280.78" y1="1700.29" x2="1967.08" y2="1267.27" xlink:href="#linear-gradient-2"/></defs><title>Note</title><g id="Folder"><path class="cls-2" d="M850.35,143.27V784.63a16.3,16.3,0,0,1-7.83,13.94A16.13,16.13,0,0,1,834,801H704.42l-381-494.28V143.27a16.31,16.31,0,0,1,5.85-12.54l1.47-1.08a16.2,16.2,0,0,1,9-2.72H834A16.34,16.34,0,0,1,850.35,143.27Z"/><path class="cls-2" d="M704.42,801H339.71a16.34,16.34,0,0,1-16.34-16.34V306.69Z"/><path class="cls-2" d="M239.11,197.39l90.11-66.66a16.31,16.31,0,0,0-5.85,12.54V306.69Z"/><path class="cls-2" d="M842.52,798.57,759.79,872.8,704.42,801H834A16.13,16.13,0,0,0,842.52,798.57Z"/><rect class="cls-3" x="235.08" y="194.89" width="531.98" height="679.04" rx="18.84"/><path class="cls-2" d="M748.22,197.39a16.34,16.34,0,0,1,16.34,16.34V855.09a16.33,16.33,0,0,1-16.34,16.34H253.92a16.34,16.34,0,0,1-16.34-16.34V213.73a16.35,16.35,0,0,1,16.34-16.34h494.3m0-5H253.92a21.37,21.37,0,0,0-21.34,21.34V855.09a21.37,21.37,0,0,0,21.34,21.34h494.3a21.36,21.36,0,0,0,21.34-21.34V213.73a21.37,21.37,0,0,0-21.34-21.34Z"/><circle class="cls-2" cx="310.14" cy="347.65" r="52.47"/><path class="cls-3" d="M203.37,380a32.38,32.38,0,0,1,0-64.75H304.48a32.38,32.38,0,0,1,0,64.75Z"/><path class="cls-2" d="M304.48,317.77a29.88,29.88,0,0,1,0,59.75H203.37a29.88,29.88,0,0,1,0-59.75H304.48m0-5H203.37a34.88,34.88,0,0,0,0,69.75H304.48a34.88,34.88,0,0,0,0-69.75Z"/><circle class="cls-2" cx="310.14" cy="477.09" r="52.47"/><path class="cls-3" d="M203.37,509.47a32.38,32.38,0,0,1,0-64.75H304.48a32.38,32.38,0,0,1,0,64.75Z"/><path class="cls-2" d="M304.48,447.22a29.88,29.88,0,0,1,0,59.75H203.37a29.88,29.88,0,0,1,0-59.75H304.48m0-5H203.37a34.88,34.88,0,0,0,0,69.75H304.48a34.88,34.88,0,0,0,0-69.75Z"/><circle class="cls-2" cx="310.14" cy="606.54" r="52.47"/><path class="cls-3" d="M203.37,638.91a32.37,32.37,0,1,1,0-64.74H304.48a32.37,32.37,0,0,1,0,64.74Z"/><path class="cls-2" d="M304.48,576.67a29.87,29.87,0,0,1,29.87,29.87h0a29.87,29.87,0,0,1-29.87,29.87H203.37a29.87,29.87,0,0,1-29.87-29.87h0a29.87,29.87,0,0,1,29.87-29.87H304.48m0-5H203.37a34.87,34.87,0,1,0,0,69.74H304.48a34.87,34.87,0,0,0,0-69.74Z"/><circle class="cls-2" cx="310.14" cy="735.99" r="52.47"/><path class="cls-3" d="M203.37,768.36a32.37,32.37,0,1,1,0-64.74H304.48a32.37,32.37,0,0,1,0,64.74Z"/><path class="cls-2" d="M304.48,706.12A29.87,29.87,0,0,1,334.35,736h0a29.87,29.87,0,0,1-29.87,29.87H203.37A29.87,29.87,0,0,1,173.5,736h0a29.87,29.87,0,0,1,29.87-29.87H304.48m0-5H203.37a34.87,34.87,0,1,0,0,69.74H304.48a34.87,34.87,0,0,0,0-69.74Z"/><path class="cls-2" d="M653.24,363.43H449a20,20,0,0,1,0-40H653.24a20,20,0,0,1,0,40Z"/><path class="cls-2" d="M620.29,432.88H481.94c-7.48,0-13.55-8.95-13.55-20s6.07-20,13.55-20H620.29c7.48,0,13.55,9,13.55,20S627.77,432.88,620.29,432.88Z"/><circle class="cls-4" cx="495.71" cy="668.46" r="39.06"/><circle class="cls-5" cx="608.31" cy="668.46" r="39.06"/><path class="cls-6" d="M834,126.93H339.71a16.2,16.2,0,0,0-9,2.72l-1.47,1.08-90.11,66.66,3.52,4.55a16.28,16.28,0,0,0-5,11.79v104H203.37a29.87,29.87,0,0,0-29.87,29.88h0a29.87,29.87,0,0,0,29.87,29.87h34.21v69.7H203.37a29.87,29.87,0,0,0-29.87,29.87h0A29.87,29.87,0,0,0,203.37,507h34.21v69.7H203.37a29.87,29.87,0,0,0-29.87,29.87h0a29.87,29.87,0,0,0,29.87,29.87h34.21v69.71H203.37A29.87,29.87,0,0,0,173.5,736h0a29.87,29.87,0,0,0,29.87,29.87h34.21v89.23a16.34,16.34,0,0,0,16.34,16.34h494.3a16.25,16.25,0,0,0,8.62-2.47l2.95,3.84,82.73-74.23a16.3,16.3,0,0,0,7.83-13.94V143.27A16.34,16.34,0,0,0,834,126.93Z"/><g class="cls-7"><g class="cls-8"><path class="cls-9" d="M2080.32,1999.67a896.21,896.21,0,0,1-95.34-16c-164.83-36.1-364.78-118-563-230.7s-370.59-242.37-485.63-365.36c-55.51-59.35-94.45-113.72-115.76-161.6-9.59-21.58-15.31-41-17.22-58.55-.41-2.06-.73-4.15-1-6.25a79.53,79.53,0,0,1,11-50.44A80.38,80.38,0,0,1,856,1074.67c11.38-5.2,24.53-9.25,39.69-12.24,40.89-8.06,93.42-7.4,156.2,1.94a9.36,9.36,0,0,0,8.7-3.42c75.85-95.29,197.71-155.11,343.12-168.45,145.9-13.39,303.25,23,443.07,102.51,139.31,79.19,250.36,194.4,312.7,324.4,61.81,128.91,73.14,262.88,31.9,377.23a9.28,9.28,0,0,0,1.65,9.1c44.18,52.29,74.77,99.94,90.94,141.62,10.17,26.23,14.27,48.71,12.54,68.73q-.26,3-.75,6a80.44,80.44,0,0,1-60.11,66.78c-14.66,5.61-31.86,9.53-51.88,11.87C2153.92,2004.26,2119.32,2003.88,2080.32,1999.67ZM1004.5,1219.81a734.63,734.63,0,0,0,49.88,58.69c102.74,109.84,265.88,232.08,447.59,335.36s370.48,181.08,517.68,213.32a744.16,744.16,0,0,0,74.78,12.78c-7-9.43-15.24-19.81-24.81-31.13a169.35,169.35,0,0,1-29.95-166.28h0c26.24-72.77,16.88-165.4-25.68-254.16-48.34-100.81-136.13-191.1-247.21-254.24-111.35-63.3-235-92.45-348.27-82.06-99.62,9.14-184,48.62-231.54,108.33a171.6,171.6,0,0,1-159,62.46C1019.6,1221.61,1011.77,1220.61,1004.5,1219.81ZM2178,1839.26Z"/></g></g></g></svg>