<svg xmlns="http://www.w3.org/2000/svg" xmlns:xlink="http://www.w3.org/1999/xlink" viewBox="0 0 1000 1000"><defs><style>.cls-1{fill:#f9f4e8;}.cls-2{fill:#66beb9;}.cls-3{fill:url(#linear-gradient);}.cls-4{fill:url(#linear-gradient-2);}.cls-5{fill:url(#linear-gradient-3);}</style><linearGradient id="linear-gradient" x1="345.51" y1="405.93" x2="655.27" y2="405.93" gradientUnits="userSpaceOnUse"><stop offset="0" stop-color="#66beb9"/><stop offset="1" stop-color="#a1dadc"/></linearGradient><linearGradient id="linear-gradient-2" x1="345.51" y1="494.93" x2="655.27" y2="494.93" gradientUnits="userSpaceOnUse"><stop offset="0" stop-color="#f8b219"/><stop offset="1" stop-color="#eeca72"/></linearGradient><linearGradient id="linear-gradient-3" x1="345.51" y1="583.94" x2="655.27" y2="583.94" xlink:href="#linear-gradient"/></defs><title>NotesMain</title><g id="Folder"><path d="M767.64,229.6H732.71V216.51A29.51,29.51,0,0,0,703.2,187h0a29.5,29.5,0,0,0-29.5,29.5V229.6H584.37V216.51A29.51,29.51,0,0,0,554.86,187h0a29.51,29.51,0,0,0-29.51,29.5V229.6H436V216.51a29.5,29.5,0,0,0-29.5-29.5h0A29.51,29.51,0,0,0,377,216.51V229.6H342.08a45.88,45.88,0,0,0-45.89,45.89v584.1a45.88,45.88,0,0,0,45.89,45.89H767.64a45.88,45.88,0,0,0,45.89-45.89V275.49A45.88,45.88,0,0,0,767.64,229.6Z"/><path class="cls-1" d="M759.06,221.71V814.59c0,25.73-20.62,46.58-46.07,46.58H285.79c-25.44,0-46.07-20.85-46.07-46.58V221.71c0-25.73,20.63-46.58,46.07-46.58H713C738.44,175.13,759.06,196,759.06,221.71Z"/><path class="cls-2" d="M759.06,221v51.33H241.72V221a45.88,45.88,0,0,1,45.89-45.89H713.17A45.88,45.88,0,0,1,759.06,221Z"/><path class="cls-3" d="M631,424.08H369.76c-13.4,0-24.25-8.12-24.25-18.15s10.85-18.16,24.25-18.16H631c13.39,0,24.24,8.13,24.24,18.16S644.42,424.08,631,424.08Z"/><path class="cls-4" d="M631,513.09H369.76c-13.4,0-24.25-8.13-24.25-18.16s10.85-18.15,24.25-18.15H631c13.39,0,24.24,8.13,24.24,18.15S644.42,513.09,631,513.09Z"/><path class="cls-5" d="M631,602.1H369.76c-13.4,0-24.25-8.13-24.25-18.16s10.85-18.16,24.25-18.16H631c13.39,0,24.24,8.13,24.24,18.16S644.42,602.1,631,602.1Z"/><rect class="cls-1" x="322.54" y="132.54" width="59.01" height="104.77" rx="29.51"/><rect class="cls-1" x="470.88" y="132.54" width="59.01" height="104.77" rx="29.51"/><rect class="cls-1" x="619.23" y="132.54" width="59.01" height="104.77" rx="29.51"/><path d="M648.73,132.54A29.51,29.51,0,0,1,678.24,162v13.09h34.93A45.88,45.88,0,0,1,759.06,221v584.1A45.89,45.89,0,0,1,713.17,851H287.61a45.89,45.89,0,0,1-45.89-45.9V221a45.88,45.88,0,0,1,45.89-45.89h34.93V162a29.51,29.51,0,0,1,59,0v13.09h89.33V162a29.51,29.51,0,0,1,59,0v13.09h89.33V162a29.5,29.5,0,0,1,29.5-29.5m0-30a59.6,59.6,0,0,0-57.05,42.59H557.45a59.52,59.52,0,0,0-114.12,0H409.11a59.52,59.52,0,0,0-114.12,0h-7.38A76,76,0,0,0,211.72,221v584.1A76,76,0,0,0,287.61,881H713.17a76,76,0,0,0,75.89-75.9V221a76,76,0,0,0-75.89-75.89h-7.38a59.61,59.61,0,0,0-57.06-42.59Z"/></g></svg>