<svg xmlns="http://www.w3.org/2000/svg" xmlns:xlink="http://www.w3.org/1999/xlink" viewBox="0 0 1000 1000"><defs><style>.cls-1{fill:#efdec7;}.cls-2{fill:#f9f4e8;}.cls-3{fill:url(#linear-gradient);}.cls-4{fill:url(#linear-gradient-2);}.cls-5{fill:url(#linear-gradient-3);}.cls-6{fill:url(#linear-gradient-4);}.cls-7{fill:#dbc6a5;}.cls-8,.cls-9{fill:#f05253;}.cls-9{stroke:#000;stroke-miterlimit:10;stroke-width:10px;}</style><linearGradient id="linear-gradient" x1="165.28" y1="572.88" x2="475.84" y2="572.88" gradientTransform="translate(308.29 -259.84) rotate(15)" gradientUnits="userSpaceOnUse"><stop offset="0" stop-color="#66beb9"/><stop offset="1" stop-color="#a1dadc"/></linearGradient><linearGradient id="linear-gradient-2" x1="165.28" y1="649.11" x2="475.84" y2="649.11" xlink:href="#linear-gradient"/><linearGradient id="linear-gradient-3" x1="165.28" y1="725.34" x2="278.9" y2="725.34" xlink:href="#linear-gradient"/><linearGradient id="linear-gradient-4" x1="305.31" y1="724.65" x2="338.06" y2="724.65" gradientTransform="translate(109.77 -201.28)" xlink:href="#linear-gradient"/></defs><title>Sticky</title><g id="Folder"><path d="M915.57,306.9a43.67,43.67,0,0,0-74.37-31.06,57.2,57.2,0,0,0-55.34,17.28L325.67,169.81A41.3,41.3,0,0,0,275.09,199L144.38,686.84a41.29,41.29,0,0,0,29.2,50.58l82.5,22.1V845.3a41.29,41.29,0,0,0,41.29,41.29H802.42a41.29,41.29,0,0,0,41.29-41.29V386.56a57.28,57.28,0,0,0,38.87-37.3A43.69,43.69,0,0,0,915.57,306.9Z"/><path class="cls-1" d="M742.26,839.94H237.8a28.37,28.37,0,0,1-28.37-28.37V307.11a54.79,54.79,0,0,1,54.8-54.8h478a54.8,54.8,0,0,1,54.8,54.8v478A54.8,54.8,0,0,1,742.26,839.94Z"/><path class="cls-2" d="M796.05,304.44,682,730l-159.4,66.79-395.7-106a41.3,41.3,0,0,1-29.2-50.58L228.44,152.35A41.29,41.29,0,0,1,279,123.16L766.85,253.88A41.28,41.28,0,0,1,796.05,304.44Z"/><path class="cls-3" d="M592.13,425.4l-253-67.8c-13-3.47-21.68-13-19.45-21.31s14.53-12.2,27.5-8.73l253,67.79c13,3.48,21.68,13,19.46,21.32S605.1,428.87,592.13,425.4Z"/><path class="cls-4" d="M572.4,499l-253-67.79c-13-3.48-21.68-13-19.46-21.31s14.54-12.21,27.51-8.73l253,67.79c13,3.48,21.68,13,19.46,21.31S585.37,502.51,572.4,499Z"/><path class="cls-5" d="M377.34,525.69l-92.57-24.81c-4.74-1.27-6.79-9-4.57-17.32s7.88-14,12.62-12.72l92.57,24.8c4.74,1.28,6.79,9,4.56,17.33S382.08,527,377.34,525.69Z"/><rect class="cls-6" x="415.08" y="506.99" width="32.76" height="32.76" rx="15.32" transform="translate(150.16 -93.84) rotate(15)"/><path class="cls-7" d="M682,730h0l-159.4,66.79h0l18.31-95A37.17,37.17,0,0,1,564,673.94c.46-.17.92-.34,1.38-.49a37.11,37.11,0,0,1,31.29,3.83Z"/><line class="cls-8" x1="785.54" y1="287.65" x2="718.04" y2="323.78"/><path d="M718.05,335.44a11.66,11.66,0,0,1-5.51-21.94L780,277.36a11.67,11.67,0,0,1,11,20.57l-67.5,36.13A11.62,11.62,0,0,1,718.05,335.44Z"/><circle class="cls-9" cx="781.57" cy="284.87" r="57.17"/><circle class="cls-9" cx="825.25" cy="260.25" r="43.68"/><path d="M268.3,121.74A41.34,41.34,0,0,1,279,123.16l460.2,123.31a57.11,57.11,0,0,1,55.34-17.28,43.67,43.67,0,1,1,41.38,73.41,57.3,57.3,0,0,1-38.87,37.3V798.65a41.3,41.3,0,0,1-41.3,41.29h-505a41.29,41.29,0,0,1-41.29-41.29V712.87l-82.51-22.1a41.31,41.31,0,0,1-29.2-50.58L228.44,152.35a41.31,41.31,0,0,1,39.86-30.61m0-30h0a71.38,71.38,0,0,0-68.84,52.85L68.74,632.42a71.31,71.31,0,0,0,50.42,87.32l60.27,16.15v62.76a71.37,71.37,0,0,0,71.29,71.29h505a71.38,71.38,0,0,0,71.3-71.29V359.26a87,87,0,0,0,31.35-33.19A73.7,73.7,0,1,0,786.1,197.81q-2.26-.12-4.53-.12a87.43,87.43,0,0,0-49.89,15.7L286.78,94.18a71.43,71.43,0,0,0-18.48-2.44Z"/></g></svg>