<svg xmlns="http://www.w3.org/2000/svg" xmlns:xlink="http://www.w3.org/1999/xlink" viewBox="0 0 1000 1000"><defs><style>.cls-1{fill:#f9f4e8;}.cls-2{fill:#66beb9;}.cls-3{fill:url(#linear-gradient);}.cls-4{fill:url(#linear-gradient-2);}.cls-5{fill:none;stroke:#000;stroke-miterlimit:10;stroke-width:30px;}</style><linearGradient id="linear-gradient" x1="108.27" y1="860.11" x2="378.57" y2="860.11" gradientTransform="translate(1195.63 293.12) rotate(90)" gradientUnits="userSpaceOnUse"><stop offset="0" stop-color="#66beb9"/><stop offset="1" stop-color="#a1dadc"/></linearGradient><linearGradient id="linear-gradient-2" x1="523.72" y1="651.68" x2="779.21" y2="651.68" gradientTransform="matrix(1, 0, 0, 1, 0, 0)" xlink:href="#linear-gradient"/></defs><title>Terminal</title><g id="Folder"><path d="M870.25,257.55H197.14a54.08,54.08,0,0,0-54.08,54.08V733.51a54.08,54.08,0,0,0,54.08,54.08H870.25a54.09,54.09,0,0,0,54.09-54.08V311.63A54.09,54.09,0,0,0,870.25,257.55Z"/><path class="cls-1" d="M883.83,271.63V693.51a54.09,54.09,0,0,1-54.09,54.08H156.63a54.08,54.08,0,0,1-54.08-54.08V271.63a54.08,54.08,0,0,1,54.08-54.08H829.74A54.09,54.09,0,0,1,883.83,271.63Z"/><path class="cls-2" d="M883.83,271.63V337H102.55V271.63a54.08,54.08,0,0,1,54.08-54.08H829.74A54.09,54.09,0,0,1,883.83,271.63Z"/><path class="cls-3" d="M240.05,671.68a23.86,23.86,0,0,1-12.13-44.43l155.72-91.69L228.38,445.92a23.86,23.86,0,1,1,23.86-41.33l190.7,110.1a23.86,23.86,0,0,1,.18,41.22l-191,112.47A23.72,23.72,0,0,1,240.05,671.68Z"/><path class="cls-4" d="M759.21,671.68H543.72a20,20,0,0,1,0-40H759.21a20,20,0,0,1,0,40Z"/><path class="cls-5" d="M829.4,217.55H156.29a54.08,54.08,0,0,0-54.08,54.08V693.51a54.08,54.08,0,0,0,54.08,54.08H829.4a54.09,54.09,0,0,0,54.09-54.08V271.63A54.09,54.09,0,0,0,829.4,217.55Z"/></g></svg>