<svg xmlns="http://www.w3.org/2000/svg" viewBox="0 0 1000 1000"><defs><style>.cls-1{fill:#0d0d0d;}.cls-2,.cls-4{fill:#f9f4e8;}.cls-2,.cls-5,.cls-8{stroke:#0d0d0d;stroke-linecap:round;stroke-linejoin:round;}.cls-2,.cls-5{stroke-width:5px;}.cls-3{fill:#c4b290;}.cls-5,.cls-8{fill:none;}.cls-6{fill:#66beb9;}.cls-7{fill:#fbb217;}.cls-8{stroke-width:15px;}</style></defs><title>Trash</title><g id="Folder"><path class="cls-1" d="M771.49,238.93l-3.44-3.79L723,185.4h0l-3.82-4.21L719,181h-.23v1.28a13.17,13.17,0,0,0-4.06-1.17l-.14,0a11.64,11.64,0,0,0-1.45-.09H365.59a14.52,14.52,0,0,0-1.48.09l-.3,0q-.6.08-1.2.21l-.22.06c-.42.11-.84.23-1.25.38l-.12.05a11.51,11.51,0,0,0-1.3.55h0V181h0l-4,4.37L307.2,238.93h.72l-.72.8h1.38l1.06,1.29h-.34l3.68,55.8,2.92,44L318.28,377l2.91,44,2.39,36.09,1.46,22,1.45,22L348.8,838.56c.11,1.66.3,3.29.56,4.89a50.25,50.25,0,0,0,17,30.08c.59.5,1.19,1,1.8,1.46A50.09,50.09,0,0,0,399,885.57H679.8a50.27,50.27,0,0,0,50.21-47l22.31-337.43,2.91-44,2.4-36.09,2.9-44,2.39-36.09,2.92-44,3.68-55.8h-.72l1.2-1.29h1.49l-.73-.81Z"/><path class="cls-2" d="M732,199.74H267.66l50.79-56a5.76,5.76,0,0,1,4.26-1.88h354.2a5.73,5.73,0,0,1,4.25,1.88Z"/><polygon class="cls-3" points="679.45 141.02 731.95 198.93 679.06 198.93 679.22 141.02 679.45 141.02"/><polygon class="cls-3" points="320.32 198.93 267.66 198.93 320.17 141.02 320.32 198.93"/><path class="cls-4" d="M359.48,848.07a53,53,0,0,1-52.71-49.34l-22.3-337.44-2.92-44L273.87,301,271,257l-3.69-55.8a2.5,2.5,0,0,1,2.49-2.67H730a2.54,2.54,0,0,1,1.83.79,2.51,2.51,0,0,1,.66,1.88L728.8,257l-2.92,44-5.29,80.13-2.4,36.09-2.9,44L693,798.73a52.94,52.94,0,0,1-52.7,49.34Z"/><path class="cls-1" d="M730,201l-3.69,55.8-2.91,44L721,337l-2.91,44-2.39,36.09-2.91,44L690.48,798.56a50.33,50.33,0,0,1-50.21,47H359.48a50.32,50.32,0,0,1-50.21-47L287,461.13l-2.92-44L281.66,381l-2.91-44-2.38-36.09-2.92-44L269.76,201H730m0-5H269.76a5,5,0,0,0-5,5.33l3.69,55.8,2.92,44,2.38,36.09,2.91,44,2.38,36.09,2.92,44,22.31,337.43a55.3,55.3,0,0,0,55.2,51.68H640.27a55.46,55.46,0,0,0,55.2-51.68l22.31-337.43,2.91-44,2.39-36.09,2.91-44,2.38-36.09,2.92-44,3.69-55.8a5,5,0,0,0-5-5.33Zm0,10h0Z"/><path class="cls-5" d="M732,198.93H267.66L316.2,145.4a13.3,13.3,0,0,1,9.87-4.38H673.55a13.32,13.32,0,0,1,9.87,4.38Z"/><polygon class="cls-6" points="726.3 256.83 723.39 300.87 276.37 300.87 273.45 256.83 726.3 256.83"/><polygon class="cls-6" points="715.7 417.09 712.79 461.13 286.96 461.13 284.04 417.09 715.7 417.09"/><polygon class="cls-7" points="721 336.96 718.09 381 281.66 381 278.75 336.96 721 336.96"/><path class="cls-1" d="M730,201l-3.69,55.8-2.91,44L721,337l-2.91,44-2.39,36.09-2.91,44L690.48,798.56a50.33,50.33,0,0,1-50.21,47H359.48a50.32,50.32,0,0,1-50.21-47L287,461.13l-2.92-44L281.66,381l-2.91-44-2.38-36.09-2.92-44L269.76,201H730m0-5H269.76a5,5,0,0,0-5,5.33l3.69,55.8,2.92,44,2.38,36.09,2.91,44,2.38,36.09,2.92,44,22.31,337.43a55.3,55.3,0,0,0,55.2,51.68H640.27a55.46,55.46,0,0,0,55.2-51.68l22.31-337.43,2.91-44,2.39-36.09,2.91-44,2.38-36.09,2.92-44,3.69-55.8a5,5,0,0,0-5-5.33Zm0,10h0Z"/><path class="cls-8" d="M408.85,603s58.3,15.42,65,34.69a107.28,107.28,0,0,0-47.7,5.78"/><path class="cls-1" d="M576.21,665.76c-13.58,0-24.64-16.84-24.64-37.55s11.06-37.55,24.64-37.55,24.64,16.85,24.64,37.55S589.8,665.76,576.21,665.76Z"/><path class="cls-4" d="M576.21,593.16c12.23,0,22.14,15.69,22.14,35.05s-9.91,35-22.14,35-22.14-15.69-22.14-35,9.91-35.05,22.14-35.05m0-5c-15.22,0-27.14,17.59-27.14,40.05s11.92,40,27.14,40,27.14-17.59,27.14-40-11.92-40.05-27.14-40.05Z"/><path class="cls-8" d="M468.45,715.3c8,4.63,21.48,10.74,38.55,10.12a72.44,72.44,0,0,0,33.72-10.12"/><path class="cls-1" d="M679.45,141l4,4.37L732,198.93h-.73l-2,2.1H730l-3.69,55.8-2.91,44L721,337l-2.91,44-2.39,36.09-2.91,44L690.48,798.56a50.33,50.33,0,0,1-50.21,47H359.48a50.32,50.32,0,0,1-50.21-47L287,461.13l-2.92-44L281.66,381l-2.91-44-2.38-36.09-2.92-44L269.76,201h.35l-1.72-2.1h-.73l48.54-53.54,4-4.37v1.4a13.35,13.35,0,0,1,5.91-1.4H673.55a13.22,13.22,0,0,1,5.66,1.29V141h.23M730,201h0M320.17,111A30,30,0,0,0,298,120.85l-4,4.37-48.55,53.57a30,30,0,0,0-5.2,32.3c0,.11.09.22.14.33l3.13,47.39,2.92,44,2.39,36.09,2.91,44,2.38,36.08L257,463.11l22.3,337.43a80.32,80.32,0,0,0,80.15,75H640.27a80.31,80.31,0,0,0,80.14-75L742.73,463.1l2.9-44L748,383l2.91-44,2.38-36.09,2.92-44,3.15-47.76a30,30,0,0,0-5.21-32.28l-48.54-53.54-4-4.36A30,30,0,0,0,679.45,111h-.23c-.88,0-1.74,0-2.6.12-1-.08-2-.12-3.07-.12H326.07c-1.07,0-2.14,0-3.2.13-.9-.09-1.8-.13-2.7-.13Z"/></g></svg>