<svg xmlns="http://www.w3.org/2000/svg" xmlns:xlink="http://www.w3.org/1999/xlink" viewBox="0 0 1920 1080"><defs><style>.cls-1{fill:none;}.cls-2{opacity:0.43;}.cls-3{clip-path:url(#clip-path);}.cls-4{fill:url(#linear-gradient);}.cls-5{fill:#f9f4e8;}.cls-6{fill:#231f20;}.cls-7{fill:#f6e7cd;}</style><clipPath id="clip-path"><rect class="cls-1" y="-1317.44" width="1920" height="1080.23"/></clipPath><linearGradient id="linear-gradient" x1="904.16" y1="-718.86" x2="-88.52" y2="-146.95" gradientUnits="userSpaceOnUse"><stop offset="0" stop-color="#66beb9"/><stop offset="1" stop-color="#a1dadc"/></linearGradient></defs><title>Tray</title><g id="Folder"><g class="cls-2"><g class="cls-3"><path class="cls-4" d="M-91.6,75.44c-40.31-4.34-77.91-20.24-107.8-46.32A181.49,181.49,0,0,1-261.56-94.32l-2-5.46,1.68-15.48,10.46-428.11c3.28-129,101.85-237.35,234.69-257.82l566.41-87.28C682.52-908.95,809.71-835,852.1-712.56L993.16-305.27c17.61,50.85,11.54,106.68-16.65,153.17-29.87,49.26-81.9,82.89-142.73,92.26L-35.38,74.09A216.79,216.79,0,0,1-91.6,75.44Zm-9.2-181.37a21.93,21.93,0,0,0,7.72,14.59c7.62,6.66,19.34,9.17,33,7L809.09-218.21c13.73-2.11,24.17-8,29.39-16.65,2-3.32,5-10,2.38-17.94l-.1-.3L699.7-660.38c-17-49-69.69-78.31-125.36-69.71L7.92-642.82c-55.79,8.6-97.11,52.26-98.25,103.82l0,.89-10.13,414.7,1.22,3.3Z"/></g></g><path class="cls-5" d="M414.51,1082.5,557.79,980a52.19,52.19,0,0,1,30.56-9.81h743.3a52.19,52.19,0,0,1,30.56,9.81l143.28,102.55Z"/><path class="cls-6" d="M1331.65,972.64a50,50,0,0,1,29.1,9.34l137,98H422.3l137-98a50,50,0,0,1,29.1-9.34h743.3m0-5H588.35a54.75,54.75,0,0,0-32,10.28l-136.94,98L406.72,1085H1513.28l-12.67-9.06-136.95-98a54.7,54.7,0,0,0-32-10.28Z"/><path class="cls-7" d="M1158.83,1071.8a2.8,2.8,0,0,1-2.5-3V983.6a2.55,2.55,0,1,1,5,0v85.18A2.8,2.8,0,0,1,1158.83,1071.8Z"/></g></svg>