<svg xmlns="http://www.w3.org/2000/svg" xmlns:xlink="http://www.w3.org/1999/xlink" viewBox="0 0 1000 1000"><defs><style>.cls-1{fill:url(#linear-gradient);}.cls-2{fill:#f9f4e8;}</style><linearGradient id="linear-gradient" x1="111.68" y1="490.09" x2="854.16" y2="490.09" gradientUnits="userSpaceOnUse"><stop offset="0" stop-color="#66beb9"/><stop offset="1" stop-color="#a1dadc"/></linearGradient></defs><title>About</title><g id="Folder"><ellipse cx="538.95" cy="547.96" rx="371.24" ry="370.36"/><ellipse class="cls-1" cx="482.92" cy="490.09" rx="371.24" ry="370.36"/><path d="M482.92,119.72c205,0,371.24,165.82,371.24,370.37S688,860.45,482.92,860.45,111.68,694.63,111.68,490.09,277.89,119.72,482.92,119.72m0-30a400.53,400.53,0,1,0,156.17,31.47A399.49,399.49,0,0,0,482.92,89.72Z"/><path class="cls-2" d="M423.45,330.49c0-33.82,25-60.52,59.47-60.52s59.47,26.7,59.47,60.52S517.41,391,482.92,391,423.45,364.31,423.45,330.49Zm1.19,87.81H541.2V710.2H424.64Z"/></g></svg>