<svg xmlns="http://www.w3.org/2000/svg" xmlns:xlink="http://www.w3.org/1999/xlink" viewBox="0 0 1000 1000"><defs><style>.cls-1{fill:#070808;}.cls-2,.cls-6{fill:#f9f4e8;}.cls-3{fill:#0d0d0d;}.cls-4{fill:url(#linear-gradient);}.cls-5{fill:url(#linear-gradient-2);}.cls-6{stroke:#0d0d0d;stroke-miterlimit:10;stroke-width:5px;}.cls-7{fill:url(#linear-gradient-3);}.cls-8{fill:url(#linear-gradient-4);}</style><linearGradient id="linear-gradient" x1="405.6" y1="286.74" x2="407.14" y2="139.68" gradientUnits="userSpaceOnUse"><stop offset="0" stop-color="#f8b219"/><stop offset="1" stop-color="#fbc25c"/></linearGradient><linearGradient id="linear-gradient-2" x1="583.29" y1="288.59" x2="584.82" y2="141.53" xlink:href="#linear-gradient"/><linearGradient id="linear-gradient-3" x1="479.49" y1="432.54" x2="511.66" y2="311.52" xlink:href="#linear-gradient"/><linearGradient id="linear-gradient-4" x1="351.47" y1="807.02" x2="655.08" y2="452.32" gradientUnits="userSpaceOnUse"><stop offset="0" stop-color="#66beb9"/><stop offset="1" stop-color="#a1dadc"/></linearGradient></defs><title>Cards</title><g id="Folder"><path class="cls-1" d="M826.66,396.72l-60.6-110.56a6.11,6.11,0,0,0-10.68-.05v-6.74h-26.6V176.71a25,25,0,0,0-25-25H366.45a25,25,0,0,0-25,25V279.37H315.72v9.71a6.08,6.08,0,0,0-11.42-2.92L243.71,396.72a6.11,6.11,0,0,0-.75,2.93v76a6.08,6.08,0,0,0,11.36,3l60.6-105.78a6,6,0,0,0,.8-3V792.46H316V893.41a13.28,13.28,0,0,0,13.27,13.28H742.34a13.28,13.28,0,0,0,13.27-13.28V373.24L816,478.72a6.08,6.08,0,0,0,11.36-3v-76A6.1,6.1,0,0,0,826.66,396.72Z"/><rect class="cls-2" x="303.91" y="114.17" width="382.36" height="533.76" rx="22.54"/><path class="cls-3" d="M663.74,116.67a20.06,20.06,0,0,1,20,20V625.39a20.06,20.06,0,0,1-20,20H326.45a20.06,20.06,0,0,1-20-20V136.71a20.06,20.06,0,0,1,20-20H663.74m0-5H326.45a25,25,0,0,0-25,25V625.39a25,25,0,0,0,25,25H663.74a25,25,0,0,0,25-25V136.71a25,25,0,0,0-25-25Z"/><path class="cls-4" d="M406.24,155.88l-35.57,35.57L336.8,225.32l69.44,69.45,69.45-69.45Z"/><path class="cls-5" d="M584,155.88l-35.58,35.57L514.5,225.32,584,294.77l69.44-69.45Z"/><rect class="cls-3" x="275.72" y="239.37" width="439.66" height="513.1"/><path class="cls-6" d="M714.64,329.92V249.08a6.08,6.08,0,0,1,11.42-2.92l60.6,110.56a6.1,6.1,0,0,1,.74,2.93v76a6.08,6.08,0,0,1-11.36,3l-60.6-105.78A6.14,6.14,0,0,1,714.64,329.92Z"/><path class="cls-6" d="M275.72,329.92V249.08a6.08,6.08,0,0,0-11.42-2.92L203.71,356.72a6,6,0,0,0-.75,2.93v76a6.08,6.08,0,0,0,11.36,3l60.6-105.78A6,6,0,0,0,275.72,329.92Z"/><rect class="cls-2" x="303.76" y="263.28" width="382.36" height="533.76" rx="22.54"/><path class="cls-3" d="M663.58,265.78a20.06,20.06,0,0,1,20,20V774.5a20.06,20.06,0,0,1-20,20H326.29a20.05,20.05,0,0,1-20-20V285.82a20.05,20.05,0,0,1,20-20H663.58m0-5H326.29a25,25,0,0,0-25,25V774.5a25,25,0,0,0,25,25H663.58a25,25,0,0,0,25-25V285.82a25,25,0,0,0-25-25Z"/><path class="cls-7" d="M494.94,305l-35.58,35.58-33.87,33.87,69.45,69.45,69.44-69.45Z"/><path class="cls-2" d="M289.23,864.19a10.79,10.79,0,0,1-10.77-10.78v-523h144q-.06,1.5-.06,3a73.36,73.36,0,0,0,146.71,0q0-1.5-.06-3h144v523a10.79,10.79,0,0,1-10.77,10.78Z"/><path class="cls-3" d="M710.61,332.93V853.41a8.29,8.29,0,0,1-8.27,8.28H289.23a8.29,8.29,0,0,1-8.27-8.28V332.93h139v.5a75.86,75.86,0,0,0,151.71,0v-.5h139m5-5H566.43c.14,1.81.21,3.65.21,5.5a70.86,70.86,0,0,1-141.71,0c0-1.85.07-3.69.21-5.5H276V853.41a13.28,13.28,0,0,0,13.27,13.28H702.34a13.28,13.28,0,0,0,13.27-13.28V327.93Z"/><rect class="cls-8" x="326.28" y="454.6" width="341.62" height="364.6" rx="15.32"/><path class="cls-1" d="M663.74,111.67a25,25,0,0,1,25,25V239.37h26.6v6.74A6.2,6.2,0,0,1,720.8,243a5.9,5.9,0,0,1,5.26,3.17l60.6,110.56a6.1,6.1,0,0,1,.74,2.93v76a6,6,0,0,1-6.15,6.1,5.89,5.89,0,0,1-5.21-3.07L715.61,333.24V853.41a13.28,13.28,0,0,1-13.27,13.28H289.23A13.28,13.28,0,0,1,276,853.41V752.46h-.24V329.92a6,6,0,0,1-.8,3l-60.6,105.78a5.89,5.89,0,0,1-5.21,3.07,6,6,0,0,1-6.15-6.1v-76a6,6,0,0,1,.75-2.93L264.3,246.16a5.89,5.89,0,0,1,5.27-3.17,6,6,0,0,1,6.15,6.09v-9.71h25.69V136.71a25,25,0,0,1,25-25H663.74m0-30H326.45a55.1,55.1,0,0,0-55,55v73a29.87,29.87,0,0,0-12.75,5A36.09,36.09,0,0,0,238,231.74L177.4,342.3A36.14,36.14,0,0,0,173,359.65v76a36.08,36.08,0,0,0,67.39,17.94l5.37-9.37v308.2a30,30,0,0,0,.24,3.81v97.14a43.33,43.33,0,0,0,43.27,43.28H702.34a43.33,43.33,0,0,0,43.27-43.28V446l4.4,7.67a36.07,36.07,0,0,0,67.39-17.94v-76A36.14,36.14,0,0,0,813,342.3L752.37,231.74a36.14,36.14,0,0,0-19.23-16.56,29.88,29.88,0,0,0-14.36-5.62V136.71a55.1,55.1,0,0,0-55-55Z"/></g></svg>