<svg xmlns="http://www.w3.org/2000/svg" xmlns:xlink="http://www.w3.org/1999/xlink" viewBox="0 0 1000 1000"><defs><style>.cls-1,.cls-8,.cls-9{fill:none;}.cls-2{fill:#0d0d0d;}.cls-3{fill:#f9f4e8;}.cls-4,.cls-5{stroke:#0d0d0d;stroke-miterlimit:10;}.cls-4,.cls-5,.cls-8{stroke-width:15px;}.cls-4{fill:url(#linear-gradient);}.cls-5{fill:url(#linear-gradient-2);}.cls-6{fill:url(#linear-gradient-3);}.cls-7{fill:url(#linear-gradient-4);}.cls-8,.cls-9{stroke:#070808;stroke-linecap:round;stroke-linejoin:round;}.cls-9{stroke-width:30px;}.cls-10{opacity:0.43;}.cls-11{clip-path:url(#clip-path);}.cls-12{fill:url(#linear-gradient-5);}</style><linearGradient id="linear-gradient" x1="429.6" y1="381" x2="656.32" y2="381" gradientUnits="userSpaceOnUse"><stop offset="0" stop-color="#66beb9"/><stop offset="1" stop-color="#a1dadc"/></linearGradient><linearGradient id="linear-gradient-2" x1="367.3" y1="443.3" x2="594.02" y2="443.3" gradientUnits="userSpaceOnUse"><stop offset="0" stop-color="#f8b219"/><stop offset="1" stop-color="#fbc25c"/></linearGradient><linearGradient id="linear-gradient-3" x1="632.11" y1="752.51" x2="659.68" y2="714.72" xlink:href="#linear-gradient-2"/><linearGradient id="linear-gradient-4" x1="702.13" y1="754" x2="728.01" y2="715.19" xlink:href="#linear-gradient"/><clipPath id="clip-path"><rect class="cls-1" x="-1087.06" y="1226.39" width="1920" height="1080.23"/></clipPath><linearGradient id="linear-gradient-5" x1="61.38" y1="1700.29" x2="747.67" y2="1267.27" xlink:href="#linear-gradient"/></defs><title>Computer</title><g id="Folder"><path class="cls-2" d="M730.88,792.27l-91.7,2.66,7.35-57.87-30.86-31.57L508,595.43l-3.22-3.3L239.27,320.6,226.4,180.4v-.09a28.92,28.92,0,0,1,8.06-20.54l.14-.15,67.06-49.46C310.13,101.51,326,97,337.34,97H827.65c21.35,0,33.6,15.89,33.6,43.6V808.66l-1.07.75C855.08,813,734.83,897.07,716,906.74c-13,6.65-36.94,7.09-37.95,7.1l-4,.06Z"/><path class="cls-2" d="M827.65,99.49c22.7,0,31.1,18.4,31.1,41.1V807.36s-125,87.45-143.88,97.15C702.28,911,678,911.34,678,911.34l56.83-121.69L642,792.34l7.14-56.17-31.71-32.43L509.82,593.68l-3.22-3.3L314.71,394.17l-73-74.68L228.9,180.26a26.23,26.23,0,0,1,7.36-18.75l67.05-49.46c7.74-8,22.88-12.56,34-12.56H827.65m0-5H337.34c-11.82,0-28.33,4.73-37.32,13.78l-66.73,49.22-.34.25-.29.3a31.42,31.42,0,0,0-8.76,22.32v.18l0,.18L236.7,320l.16,1.77L238.1,323l73,74.68L503,593.88l3.22,3.29L613.88,707.24l30,30.7-6.83,53.77-.74,5.8,5.84-.17,84.72-2.46L673.5,909.23l-3.38,7.23,8-.12c1,0,25.57-.47,39.06-7.38,19-9.74,139.35-93.92,144.46-97.5l2.14-1.49V140.59c0-29.3-13.16-46.1-36.1-46.1Z"/><path class="cls-3" d="M333.94,596.18a21.74,21.74,0,0,1-21.73-21.74V388L508.38,588.63l7.37,7.55Z"/><path class="cls-2" d="M314.71,394.17,506.6,590.38l3.22,3.3H333.94a19.24,19.24,0,0,1-19.23-19.24V394.17m-5-12.26V574.44a24.22,24.22,0,0,0,24.23,24.24H521.68l-8.28-8.49-3.22-3.3L318.28,390.68l-8.57-8.77Z"/><path class="cls-3" d="M324.66,706.24a7.1,7.1,0,0,1-7.09-7.09V595a7.09,7.09,0,0,1,7.09-7.09h183l4,4.06L623.4,706.24Z"/><path class="cls-2" d="M506.6,590.38l3.22,3.3L617.46,703.74H324.66a4.6,4.6,0,0,1-4.59-4.59V595a4.6,4.6,0,0,1,3.36-4.42,4.51,4.51,0,0,1,1.23-.17H506.6m2.1-5h-184a9.42,9.42,0,0,0-2.59.36,9.61,9.61,0,0,0-7,9.23V699.15a9.6,9.6,0,0,0,9.59,9.59H629.34L621,700.25,513.39,590.19l-3.21-3.3-1.48-1.51Z"/><path class="cls-3" d="M144.4,909.12c-4.65,0-8.39-2.24-10-6-1.11-2.54-2-7.78,4-14.29l91.42-98c4.66-5,13.12-10,20.29-10H783.22c4.64,0,8.39,2.24,10,6,1.1,2.55,2,7.78-4,14.3l-91.43,98c-4.65,5-13.11,10-20.28,10Z"/><path class="cls-2" d="M783.22,788.25c4.23,0,4.46,3.43.52,7.66L692.31,894c-3.95,4.23-10.57,7.65-14.8,7.65H144.4c-4.23,0-4.46-3.42-.52-7.65l91.43-98.05c3.94-4.23,10.57-7.66,14.8-7.66H783.22m0-15H250.11c-9.74,0-20.19,6.45-25.77,12.43l-91.43,98.05c-9.32,10-6.89,19-5.41,22.39,2.82,6.47,9.29,10.49,16.9,10.49H677.51c9.74,0,20.19-6.44,25.77-12.43l91.43-98c9.32-10,6.89-19,5.41-22.39-2.82-6.48-9.29-10.5-16.9-10.5Z"/><rect class="cls-3" x="229.08" y="155.88" width="563.43" height="523.43" rx="26.73"/><path class="cls-2" d="M765.77,163.38A19.23,19.23,0,0,1,785,182.61v470a19.24,19.24,0,0,1-19.23,19.24h-510a19.24,19.24,0,0,1-19.23-19.24v-470a19.23,19.23,0,0,1,19.23-19.23h510m0-15h-510a34.27,34.27,0,0,0-34.23,34.23v470a34.27,34.27,0,0,0,34.23,34.24h510A34.28,34.28,0,0,0,800,652.57v-470a34.27,34.27,0,0,0-34.23-34.23Z"/><rect class="cls-3" x="281.16" y="207.97" width="459.26" height="419.26" rx="26.73"/><path class="cls-2" d="M713.68,215.47a19.24,19.24,0,0,1,19.24,19.23V600.49a19.24,19.24,0,0,1-19.24,19.23H307.89a19.23,19.23,0,0,1-19.23-19.23V234.7a19.23,19.23,0,0,1,19.23-19.23H713.68m0-15H307.89a34.27,34.27,0,0,0-34.23,34.23V600.49a34.27,34.27,0,0,0,34.23,34.23H713.68a34.28,34.28,0,0,0,34.24-34.23V234.7a34.27,34.27,0,0,0-34.24-34.23Z"/><rect class="cls-3" x="229.08" y="666.37" width="563.43" height="128.36" rx="12.1"/><path class="cls-2" d="M780.41,673.87a4.6,4.6,0,0,1,4.59,4.6V782.64a4.6,4.6,0,0,1-4.59,4.59H241.17a4.59,4.59,0,0,1-4.59-4.59V678.47a4.59,4.59,0,0,1,4.59-4.6H780.41m0-15H241.17a19.62,19.62,0,0,0-19.59,19.6V782.64a19.61,19.61,0,0,0,19.59,19.59H780.41A19.61,19.61,0,0,0,800,782.64V678.47a19.62,19.62,0,0,0-19.59-19.6Z"/><path class="cls-4" d="M450,296.74H635.89a20.43,20.43,0,0,1,20.43,20.43V465.25a0,0,0,0,1,0,0H429.6a0,0,0,0,1,0,0V317.17A20.43,20.43,0,0,1,450,296.74Z"/><path class="cls-5" d="M387.72,359H573.6A20.43,20.43,0,0,1,594,379.47V527.55a0,0,0,0,1,0,0H367.3a0,0,0,0,1,0,0V379.47A20.43,20.43,0,0,1,387.72,359Z"/><circle class="cls-6" cx="647.38" cy="731.57" r="22.47"/><circle class="cls-7" cx="717.09" cy="731.57" r="22.47"/><line class="cls-8" x1="283.64" y1="729.79" x2="422.7" y2="729.79"/><path class="cls-9" d="M847.75,703V140.59c0-22.7-8.4-41.1-31.1-41.1H326.34c-11.15,0-26.29,4.53-34,12.56l-67.05,49.46a26.23,26.23,0,0,0-7.36,18.75l7.68,83.65V794.67c-.45.41-.88.82-1.27,1.24L132.88,894c-3.94,4.23-3.71,7.65.52,7.65H666.51a15.32,15.32,0,0,0,5.71-1.4L667,911.34s24.25-.37,36.85-6.83c18.88-9.7,143.88-97.15,143.88-97.15V703Z"/><g class="cls-10"><g class="cls-11"><path class="cls-12" d="M860.91,1999.67a897.06,897.06,0,0,1-95.34-16c-164.83-36.1-364.77-118-563-230.7S-168,1510.62-283,1387.63c-55.51-59.35-94.45-113.72-115.76-161.6-9.6-21.58-15.31-41-17.22-58.55-.41-2.06-.73-4.15-1-6.25a79.52,79.52,0,0,1,11-50.44,80.44,80.44,0,0,1,42.62-36.12c11.37-5.2,24.53-9.25,39.68-12.24,40.9-8.06,93.43-7.4,156.2,1.94a9.38,9.38,0,0,0,8.71-3.42C-83,965.66,38.89,905.84,184.3,892.5c145.91-13.39,303.26,23,443.07,102.51,139.31,79.19,250.36,194.4,312.7,324.4,61.82,128.91,73.15,262.88,31.91,377.23a9.28,9.28,0,0,0,1.65,9.1c44.17,52.29,74.77,99.94,90.93,141.62,10.17,26.23,14.28,48.71,12.55,68.73q-.27,3-.76,6a80.33,80.33,0,0,1-60.1,66.78c-14.66,5.61-31.86,9.53-51.88,11.87C934.52,2004.26,899.92,2003.88,860.91,1999.67ZM-214.9,1219.81A734.63,734.63,0,0,0-165,1278.5c102.74,109.84,265.87,232.08,447.59,335.36s370.48,181.08,517.67,213.32A744.3,744.3,0,0,0,875,1840c-7-9.43-15.24-19.81-24.81-31.13a169.37,169.37,0,0,1-30-166.28h0c26.25-72.77,16.89-165.4-25.67-254.16-48.35-100.81-136.14-191.1-247.21-254.24-111.35-63.3-235-92.45-348.27-82.06-99.62,9.14-184,48.62-231.54,108.33a171.61,171.61,0,0,1-159,62.46C-199.8,1221.61-207.63,1220.61-214.9,1219.81ZM958.57,1839.26Z"/></g></g></g></svg>