<svg xmlns="http://www.w3.org/2000/svg" xmlns:xlink="http://www.w3.org/1999/xlink" viewBox="0 0 1000 1000"><defs><style>.cls-1{fill:none;}.cls-2{fill:#0d0d0d;stroke:#070808;stroke-miterlimit:10;stroke-width:30px;}.cls-3{fill:url(#linear-gradient);}.cls-4{fill:url(#linear-gradient-2);}.cls-5{fill:url(#linear-gradient-3);}.cls-6{fill:url(#linear-gradient-4);}.cls-7{clip-path:url(#clip-path);}.cls-8{fill:url(#linear-gradient-5);}.cls-9{clip-path:url(#clip-path-2);}.cls-10{clip-path:url(#clip-path-3);}.cls-11{clip-path:url(#clip-path-4);}</style><linearGradient id="linear-gradient" x1="131.8" y1="636.26" x2="584.76" y2="120.44" gradientTransform="translate(416.42 -53.19) rotate(45)" gradientUnits="userSpaceOnUse"><stop offset="0" stop-color="#ea9e22"/><stop offset="1" stop-color="#fbc25c"/></linearGradient><linearGradient id="linear-gradient-2" x1="352.91" y1="830.45" x2="805.87" y2="314.63" gradientTransform="translate(624.95 -139.56) rotate(45)" xlink:href="#linear-gradient"/><linearGradient id="linear-gradient-3" x1="146.42" y1="648.7" x2="599.38" y2="132.89" gradientTransform="translate(329.56 -262.91) rotate(45)" xlink:href="#linear-gradient"/><linearGradient id="linear-gradient-4" x1="367.53" y1="842.89" x2="820.49" y2="327.08" gradientTransform="translate(538.08 -349.29) rotate(45)" xlink:href="#linear-gradient"/><clipPath id="clip-path"><path id="SVGID" class="cls-1" d="M158,336.23H386.88a25.39,25.39,0,0,1,25.39,25.39V591.54a24.39,24.39,0,0,1-24.39,24.39H158a25.39,25.39,0,0,1-25.39-25.39V361.61A25.39,25.39,0,0,1,158,336.23Z" transform="translate(-256.85 332.07) rotate(-45)"/></clipPath><linearGradient id="linear-gradient-5" x1="393.77" y1="776.17" x2="576.99" y2="234.85" gradientUnits="userSpaceOnUse"><stop offset="0" stop-color="#f8b219"/><stop offset="1" stop-color="#fbc25c"/></linearGradient><clipPath id="clip-path-2"><path id="SVGID-2" data-name="SVGID" class="cls-1" d="M366.48,544.75H595.4a25.39,25.39,0,0,1,25.39,25.39V800.06a24.39,24.39,0,0,1-24.39,24.39H366.48a25.39,25.39,0,0,1-25.39-25.39V570.14a25.39,25.39,0,0,1,25.39-25.39Z" transform="translate(-343.22 540.59) rotate(-45)"/></clipPath><clipPath id="clip-path-3"><path id="SVGID-3" data-name="SVGID" class="cls-1" d="M367.68,126.5H596.6A25.39,25.39,0,0,1,622,151.89V381.81A24.39,24.39,0,0,1,597.6,406.2H367.68a25.39,25.39,0,0,1-25.39-25.39V151.89a25.39,25.39,0,0,1,25.39-25.39Z" transform="translate(-47.12 418.94) rotate(-45)"/></clipPath><clipPath id="clip-path-4"><path id="SVGID-4" data-name="SVGID" class="cls-1" d="M576.2,335H805.13a25.39,25.39,0,0,1,25.39,25.39V590.34a24.39,24.39,0,0,1-24.39,24.39H576.2a25.39,25.39,0,0,1-25.39-25.39V360.41A25.39,25.39,0,0,1,576.2,335Z" transform="translate(-133.5 627.46) rotate(-45)"/></clipPath></defs><title>Main Icon</title><g id="Folder"><path class="cls-2" d="M941.28,536.49l-175.8,175.8c-.38.39-.77.76-1.18,1.13l-44.19,44.19-.12.12q-.47.51-1,1L543.22,934.54a31.6,31.6,0,0,1-44.66,0L377,813,156.5,592.48l-54-54a31.6,31.6,0,0,1,0-44.66L277.58,318.66l.06-.06,47.08-47.08,99.67-99.67L499.84,96.4a31.62,31.62,0,0,1,44.66,0L604.13,156,720.3,272.21l45.14,45.13,59.2,59.2L941.28,493.19A30.65,30.65,0,0,1,941.28,536.49Z"/><path class="cls-2" d="M901.28,496.49l-175.8,175.8c-.38.39-.77.76-1.18,1.13l-44.19,44.19-.12.12q-.47.51-1,1L503.22,894.54a31.6,31.6,0,0,1-44.66,0L337,773,116.5,552.48l-54-54a31.6,31.6,0,0,1,0-44.66L237.58,278.66l.06-.06,47.08-47.08,99.67-99.67L459.84,56.4a31.62,31.62,0,0,1,44.66,0L564.13,116,680.3,232.21l45.14,45.13,59.2,59.2L901.28,453.19A30.65,30.65,0,0,1,901.28,496.49Z"/><path class="cls-3" d="M158,336.23H386.88a25.39,25.39,0,0,1,25.39,25.39V591.54a24.39,24.39,0,0,1-24.39,24.39H158a25.39,25.39,0,0,1-25.39-25.39V361.61A25.39,25.39,0,0,1,158,336.23Z" transform="translate(-256.85 332.07) rotate(-45)"/><path class="cls-4" d="M366.48,544.75H595.4a25.39,25.39,0,0,1,25.39,25.39V800.06a24.39,24.39,0,0,1-24.39,24.39H366.48a25.39,25.39,0,0,1-25.39-25.39V570.14a25.39,25.39,0,0,1,25.39-25.39Z" transform="translate(-343.22 540.59) rotate(-45)"/><path class="cls-5" d="M367.68,126.5H596.6A25.39,25.39,0,0,1,622,151.89V381.81A24.39,24.39,0,0,1,597.6,406.2H367.68a25.39,25.39,0,0,1-25.39-25.39V151.89a25.39,25.39,0,0,1,25.39-25.39Z" transform="translate(-47.12 418.94) rotate(-45)"/><path class="cls-6" d="M576.2,335H805.13a25.39,25.39,0,0,1,25.39,25.39V590.34a24.39,24.39,0,0,1-24.39,24.39H576.2a25.39,25.39,0,0,1-25.39-25.39V360.41A25.39,25.39,0,0,1,576.2,335Z" transform="translate(-133.5 627.46) rotate(-45)"/><g class="cls-7"><path class="cls-8" d="M812.17,411.6C798.39,384,775.44,361.07,747.89,345l-2.54-1.45a145.3,145.3,0,0,0-29.6-49.07c-20.66-23-52.8-39-84.94-43.64L355.33,216.38c-32.14-2.29-66.57,4.6-94.12,23a140.61,140.61,0,0,0-57.39,78.08l-64.28,209c-4.59,13.78-6.88,29.86-4.59,43.64,2.3,16.07,9.18,29.85,16.07,41.34,9.18,13.77,18.37,25.26,32.14,32.15a138.52,138.52,0,0,0,43.62,13.78l299,39a9.49,9.49,0,0,0-.56,9.22c0,4.59,2.3,6.89,6.89,9.18l36.73,20.67c2.29,2.3,4.59,2.3,6.88,2.3s6.89-2.3,6.89,0c4.59-2.3,4.59-4.59,6.89-6.89l13-24.47,46.74,6.1H663c27.55,0,52.8-11.49,68.87-29.86,11.48-11.48,20.66-23,25.25-36.75a143.29,143.29,0,0,0,6.67-36.16q7.21-4.56,14-9.77c27.55-25.26,45.92-59.71,50.51-96.46C832.83,471.31,825.94,439.16,812.17,411.6Z"/></g><g class="cls-9"><path class="cls-8" d="M812.17,411.6C798.39,384,775.44,361.07,747.89,345l-2.54-1.45a145.3,145.3,0,0,0-29.6-49.07c-20.66-23-52.8-39-84.94-43.64L355.33,216.38c-32.14-2.29-66.57,4.6-94.12,23a140.61,140.61,0,0,0-57.39,78.08l-64.28,209c-4.59,13.78-6.88,29.86-4.59,43.64,2.3,16.07,9.18,29.85,16.07,41.34,9.18,13.77,18.37,25.26,32.14,32.15a138.52,138.52,0,0,0,43.62,13.78l299,39a9.49,9.49,0,0,0-.56,9.22c0,4.59,2.3,6.89,6.89,9.18l36.73,20.67c2.29,2.3,4.59,2.3,6.88,2.3s6.89-2.3,6.89,0c4.59-2.3,4.59-4.59,6.89-6.89l13-24.47,46.74,6.1H663c27.55,0,52.8-11.49,68.87-29.86,11.48-11.48,20.66-23,25.25-36.75a143.29,143.29,0,0,0,6.67-36.16q7.21-4.56,14-9.77c27.55-25.26,45.92-59.71,50.51-96.46C832.83,471.31,825.94,439.16,812.17,411.6Z"/></g><g class="cls-10"><path class="cls-8" d="M812.17,411.6C798.39,384,775.44,361.07,747.89,345l-2.54-1.45a145.3,145.3,0,0,0-29.6-49.07c-20.66-23-52.8-39-84.94-43.64L355.33,216.38c-32.14-2.29-66.57,4.6-94.12,23a140.61,140.61,0,0,0-57.39,78.08l-64.28,209c-4.59,13.78-6.88,29.86-4.59,43.64,2.3,16.07,9.18,29.85,16.07,41.34,9.18,13.77,18.37,25.26,32.14,32.15a138.52,138.52,0,0,0,43.62,13.78l299,39a9.49,9.49,0,0,0-.56,9.22c0,4.59,2.3,6.89,6.89,9.18l36.73,20.67c2.29,2.3,4.59,2.3,6.88,2.3s6.89-2.3,6.89,0c4.59-2.3,4.59-4.59,6.89-6.89l13-24.47,46.74,6.1H663c27.55,0,52.8-11.49,68.87-29.86,11.48-11.48,20.66-23,25.25-36.75a143.29,143.29,0,0,0,6.67-36.16q7.21-4.56,14-9.77c27.55-25.26,45.92-59.71,50.51-96.46C832.83,471.31,825.94,439.16,812.17,411.6Z"/></g><g class="cls-11"><path class="cls-8" d="M812.17,411.6C798.39,384,775.44,361.07,747.89,345l-2.54-1.45a145.3,145.3,0,0,0-29.6-49.07c-20.66-23-52.8-39-84.94-43.64L355.33,216.38c-32.14-2.29-66.57,4.6-94.12,23a140.61,140.61,0,0,0-57.39,78.08l-64.28,209c-4.59,13.78-6.88,29.86-4.59,43.64,2.3,16.07,9.18,29.85,16.07,41.34,9.18,13.77,18.37,25.26,32.14,32.15a138.52,138.52,0,0,0,43.62,13.78l299,39a9.49,9.49,0,0,0-.56,9.22c0,4.59,2.3,6.89,6.89,9.18l36.73,20.67c2.29,2.3,4.59,2.3,6.88,2.3s6.89-2.3,6.89,0c4.59-2.3,4.59-4.59,6.89-6.89l13-24.47,46.74,6.1H663c27.55,0,52.8-11.49,68.87-29.86,11.48-11.48,20.66-23,25.25-36.75a143.29,143.29,0,0,0,6.67-36.16q7.21-4.56,14-9.77c27.55-25.26,45.92-59.71,50.51-96.46C832.83,471.31,825.94,439.16,812.17,411.6Z"/></g></g></svg>