<svg xmlns="http://www.w3.org/2000/svg" xmlns:xlink="http://www.w3.org/1999/xlink" viewBox="0 0 1000 1000"><defs><style>.cls-1{fill:#0d0d0d;}.cls-2{stroke:#0d0d0d;stroke-miterlimit:10;stroke-width:5px;fill:url(#linear-gradient);}.cls-3{fill:#f9f4e8;}</style><linearGradient id="linear-gradient" x1="489.36" y1="787.77" x2="507.76" y2="158.64" gradientUnits="userSpaceOnUse"><stop offset="0" stop-color="#66beb9"/><stop offset="1" stop-color="#a1dadc"/></linearGradient></defs><title>Massage 2</title><g id="Folder"><path class="cls-1" d="M899.62,449.29,809.19,376.1V222.83a9.53,9.53,0,0,0-2.8-6.76,7.93,7.93,0,0,0-.68-.62,8.91,8.91,0,0,0-1.53-1,9.63,9.63,0,0,0-4.56-1.16H608L570,182.57l-31.49-25.48h0L499.9,188.38l-30.76,24.88H277.48c-.33,0-.65,0-1,.05a10.4,10.4,0,0,0-1.86.38c-.3.1-.6.21-.88.33a9.56,9.56,0,0,0-5.85,8.81V376.1l-90.43,73.19L176,450.7v452H901.1v-452Z"/><path d="M498.55,752.06a2.48,2.48,0,0,1-1.7-.68l-362.55-338a2.48,2.48,0,0,1-.8-1.82v-.9a2.51,2.51,0,0,1,.78-1.82l1.48-1.4.15-.14L497,115.15a2.49,2.49,0,0,1,3.15,0L861.2,407.34l.15.14,1.48,1.4a2.54,2.54,0,0,1,.77,1.82v.9a2.47,2.47,0,0,1-.79,1.82l-362.55,338A2.49,2.49,0,0,1,498.55,752.06Z"/><path class="cls-1" d="M498.55,117.09l361.07,292.2,1.48,1.41v.9l-362.55,338L136,411.6v-.9l1.48-1.41,361.07-292.2m0-5a5,5,0,0,0-3.14,1.12L134.34,405.4a2.61,2.61,0,0,0-.31.27l-1.48,1.41A5,5,0,0,0,131,410.7v.9a5,5,0,0,0,1.59,3.65l362.55,338a5,5,0,0,0,6.82,0l362.55-338a5,5,0,0,0,1.59-3.65v-.9a5,5,0,0,0-1.55-3.62l-1.48-1.41-.3-.27L501.7,113.21a5,5,0,0,0-3.15-1.12Z"/><rect class="cls-2" x="227.91" y="173.26" width="541.28" height="600.51" rx="9.57"/><path class="cls-3" d="M136,865.24a2.5,2.5,0,0,1-2.5-2.5V411.6a2.5,2.5,0,0,1,1.41-2.25,2.45,2.45,0,0,1,1.09-.25,2.55,2.55,0,0,1,1.54.52l361,281.83,361-281.83a2.52,2.52,0,0,1,1.53-.52,2.49,2.49,0,0,1,2.5,2.5V862.74a2.5,2.5,0,0,1-2.5,2.5Z"/><path class="cls-1" d="M861.1,411.6V862.74H136V411.6l362.55,283,362.55-283m0-5a5,5,0,0,0-3.07,1L498.55,688.28,139.08,407.65a5,5,0,0,0-8.08,4V862.74a5,5,0,0,0,5,5H861.1a5,5,0,0,0,5-5V411.6a5,5,0,0,0-5-5Z"/><path class="cls-1" d="M498.55,117.09,568,173.26H759.62a9.57,9.57,0,0,1,9.57,9.57V336.1l90.43,73.19,1.48,1.41v452H136v-452l1.48-1.41,90.43-73.19V182.83a9.58,9.58,0,0,1,9.57-9.57H429.14l69.41-56.17m0-15a15,15,0,0,0-9.43,3.34l-65.29,52.83H237.48a24.6,24.6,0,0,0-24.57,24.57V329l-84.86,68.68a11.57,11.57,0,0,0-.91.8l-1.48,1.41A15,15,0,0,0,121,410.7v452a15,15,0,0,0,15,15H861.1a15,15,0,0,0,15-15v-452a15,15,0,0,0-4.65-10.86L870,398.43c-.29-.28-.6-.55-.91-.8L784.19,329V182.83a24.6,24.6,0,0,0-24.57-24.57H573.27L508,105.43a15,15,0,0,0-9.44-3.34Z"/></g></svg>