<svg xmlns="http://www.w3.org/2000/svg" xmlns:xlink="http://www.w3.org/1999/xlink" viewBox="0 0 1000 1000"><defs><style>.cls-1{fill:#070808;}.cls-2,.cls-3{stroke:#070808;stroke-miterlimit:10;stroke-width:5px;}.cls-2{fill:url(#linear-gradient);}.cls-3{fill:url(#linear-gradient-2);}.cls-4{fill:#f9f4e8;}.cls-5{fill:url(#linear-gradient-3);}</style><linearGradient id="linear-gradient" x1="629.1" y1="720.61" x2="200.16" y2="299.85" gradientUnits="userSpaceOnUse"><stop offset="0" stop-color="#66beb9"/><stop offset="1" stop-color="#a1dadc"/></linearGradient><linearGradient id="linear-gradient-2" x1="471.32" y1="764.14" x2="701.01" y2="235.05" xlink:href="#linear-gradient"/><linearGradient id="linear-gradient-3" x1="435.38" y1="726.54" x2="651.81" y2="227.99" gradientUnits="userSpaceOnUse"><stop offset="0" stop-color="#66beb9"/><stop offset="0.03" stop-color="#68bfba" stop-opacity="0.96"/><stop offset="0.29" stop-color="#7cc9c6" stop-opacity="0.62"/><stop offset="0.52" stop-color="#8cd0d0" stop-opacity="0.36"/><stop offset="0.73" stop-color="#97d5d6" stop-opacity="0.16"/><stop offset="0.89" stop-color="#9ed9da" stop-opacity="0.04"/><stop offset="1" stop-color="#a1dadc" stop-opacity="0"/></linearGradient></defs><title>Messaging</title><g id="Folder"><path class="cls-1" d="M835.78,704.1c51.08-49,82-113,82-183,0-121.46-93.07-224.77-222.95-263-59.15-44.25-137.3-71.18-223-71.18-184.57,0-334.19,124.85-334.19,278.86,0,70,30.93,134,82,183C205.42,744.82,155,788,155,788c69,3.73,124.15-39.22,158.63-76.57a369.68,369.68,0,0,0,47,17.35c59.15,44.24,137.28,71.15,223,71.15,57.24,0,111.11-12,158.2-33.17,34.49,37.36,89.62,80.3,158.63,76.57C900.42,843.37,850,800.15,835.78,704.1Z"/><path class="cls-2" d="M115,748c69,3.73,124.15-39.22,158.63-76.57,47.09,21.16,101,33.17,158.2,33.17C616.4,704.64,766,579.79,766,425.78S616.4,146.92,431.83,146.92,97.64,271.77,97.64,425.78c0,70,30.93,134,82,183C165.42,704.82,115,748,115,748Z"/><path class="cls-3" d="M860.42,803.37c-69,3.73-124.14-39.21-158.63-76.57C654.7,748,600.83,760,543.59,760,359,760,209.4,635.13,209.4,481.11S359,202.26,543.59,202.26,877.78,327.1,877.78,481.11c0,70-30.92,134-82,183C810,760.15,860.42,803.37,860.42,803.37Z"/><path class="cls-4" d="M751,447.16c-7.84-15.69-20.91-28.77-36.6-37.92l-1.44-.83a82.89,82.89,0,0,0-16.86-27.94c-11.76-13.08-30.06-22.23-48.36-24.84L490.88,336c-18.3-1.31-37.9,2.61-53.59,13.08a80.06,80.06,0,0,0-32.68,44.46l-36.6,119c-2.61,7.84-3.92,17-2.61,24.85,1.3,9.15,5.23,17,9.15,23.53,5.23,7.85,10.45,14.39,18.3,18.31a78.92,78.92,0,0,0,24.83,7.85L587.93,609.3a5.4,5.4,0,0,0-.32,5.25c0,2.62,1.31,3.92,3.92,5.23l20.91,11.77a4.81,4.81,0,0,0,3.93,1.31c1.3,0,3.92-1.31,3.92,0,2.61-1.31,2.61-2.62,3.92-3.93L631.58,615l26.61,3.47H666c15.68,0,30.06-6.54,39.21-17,6.54-6.54,11.77-13.07,14.38-20.92a81.74,81.74,0,0,0,3.8-20.59q4.1-2.6,8-5.56a90.41,90.41,0,0,0,28.76-54.93C762.77,481.16,758.84,462.86,751,447.16Z"/><path class="cls-5" d="M718.06,616.71c-65,3.51,7.09,127.26-25.4,92.06C648.29,728.71,597.52,740,543.59,740,369.68,740,228.7,622.39,228.7,477.27s141-262.76,314.89-262.76,314.9,117.64,314.9,262.76c0,66-29.14,126.28-77.27,172.42C794.62,740.2,718.06,616.71,718.06,616.71Z"/><path class="cls-1" d="M431.83,146.92c85.7,0,163.85,26.93,223,71.18,129.88,38.24,223,141.55,223,263,0,70-30.93,134-82,183,14.22,96,64.64,139.27,64.64,139.27-2.82.16-5.62.23-8.39.23-65.09,0-117.16-41-150.24-76.8C654.7,748,600.83,760,543.59,760c-85.68,0-163.81-26.91-223-71.15a369.68,369.68,0,0,1-47-17.35c-33.07,35.83-85.13,76.79-150.23,76.79q-4.17,0-8.4-.22s50.42-43.22,64.65-139.28c-51.08-49-82-113-82-183,0-154,149.62-278.86,334.19-278.86m0-30a419.78,419.78,0,0,0-140.06,23.62c-43.18,15.24-82,37.11-115.47,65-33.84,28.24-60.47,61.24-79.16,98.11a267.21,267.21,0,0,0-4.93,234,299.18,299.18,0,0,0,55.23,81.25c-7.18,35.52-19.64,61.27-29.4,77.23-11.39,18.63-21.58,28.22-22.67,29.23A29.61,29.61,0,0,0,86.3,757.6,30.07,30.07,0,0,0,113.38,778c3.32.18,6.69.27,10,.27,66.8,0,120.63-35.91,157.44-71.29,8.58,3.31,17.33,6.34,26.17,9.07a380.54,380.54,0,0,0,105.86,53.47A421.32,421.32,0,0,0,543.59,790a429.13,429.13,0,0,0,89.16-9.3,408.68,408.68,0,0,0,61.84-18.36C731.4,797.69,785.22,833.6,852,833.6c3.32,0,6.69-.09,10-.27a30.12,30.12,0,0,0,27.09-20.39,29.64,29.64,0,0,0-9.07-32.25c-1.1-1-11.28-10.6-22.68-29.23-9.76-16-22.22-41.71-29.39-77.23A299.56,299.56,0,0,0,883.22,593a266.66,266.66,0,0,0,5.91-209.8,293.56,293.56,0,0,0-51.4-84.38,342.33,342.33,0,0,0-77.31-66,387.84,387.84,0,0,0-92-42,380.89,380.89,0,0,0-105.87-53.48,421.51,421.51,0,0,0-130.75-20.47Z"/></g></svg>