<svg xmlns="http://www.w3.org/2000/svg" xmlns:xlink="http://www.w3.org/1999/xlink" viewBox="0 0 1000 1000"><defs><style>.cls-1{fill:url(#linear-gradient);}.cls-2{fill:#f9f4e8;}.cls-3{fill:none;stroke:#000;stroke-linecap:round;stroke-linejoin:round;stroke-width:30px;}</style><linearGradient id="linear-gradient" x1="146.51" y1="496.58" x2="847.29" y2="496.58" gradientUnits="userSpaceOnUse"><stop offset="0" stop-color="#f8b219"/><stop offset="1" stop-color="#eeca72"/></linearGradient></defs><title>Music</title><g id="Folder"><rect x="200.97" y="203.43" width="700.78" height="695.21" rx="104.28"/><rect class="cls-1" x="146.51" y="148.97" width="700.78" height="695.21" rx="114.89"/><path class="cls-2" d="M715.56,308.13l.07-49.47L365.39,288.79l-.07,49.47-.1,71.14L365,587.78a69.42,69.42,0,0,0-10.28.13l-56.12,4.82c-38.73,3.34-70.18,37.68-70.24,76.71h0c-.06,39,31.3,68,70,64.64l56.11-4.83c37.17-3.2,67.62-34.94,70.08-72l.16,0v-4.71h0l.35-248.29,230.54-19.83-.26,178.37a69.55,69.55,0,0,0-10.29.13L589,567.75c-38.74,3.33-70.19,37.67-70.24,76.7h0c-.06,39,31.3,68,70,64.64l56.11-4.83c37.17-3.2,67.62-34.94,70.08-72h.16v-4.72h0l.46-319.42Z"/><rect class="cls-3" x="146.51" y="148.97" width="700.78" height="695.21" rx="104.28"/></g></svg>