<svg xmlns="http://www.w3.org/2000/svg" xmlns:xlink="http://www.w3.org/1999/xlink" viewBox="0 0 1000 1000"><defs><style>.cls-1{fill:url(#linear-gradient);}.cls-2{fill:url(#linear-gradient-2);}</style><linearGradient id="linear-gradient" x1="73.05" y1="471.31" x2="880.63" y2="471.31" gradientUnits="userSpaceOnUse"><stop offset="0" stop-color="#f8b219"/><stop offset="1" stop-color="#eeca72"/></linearGradient><linearGradient id="linear-gradient-2" x1="553.89" y1="626.79" x2="868.63" y2="626.79" xlink:href="#linear-gradient"/></defs><title>RaccaiLogo</title><g id="Folder"><path d="M760.69,170.54h15.64q90.93,0,162.3,52.79V395.41h-3.91Q857,346.54,768.51,346.53q-90.43,0-254.2,58.66-2,13.2-154.48,486.9H197.53l-3.91-2L334.41,448.21H293.35q-90.93,0-162.3-52.8V223.33H135q77.73,48.9,166.21,48.89,93.36,0,330.46-82.13Q713.27,170.55,760.69,170.54Z"/><path d="M614.26,481.5h252c1.57.2,2.36,1,2.36,2.36v97q0,29.88-2.36,58h58c1.57.2,2.36,1,2.36,2.37v95.84a2.09,2.09,0,0,1-2.36,2.37H852.09q-16.27,67.44-32,93.47-35.21,59.18-80.46,59.17H614.26a2.09,2.09,0,0,1-2.37-2.37V793.87c.19-1.57,1-2.36,2.37-2.36h58q56.79,0,67.44-52.06H672.24a2.09,2.09,0,0,1-2.37-2.37V641.24q.28-2.37,2.37-2.37h86.37Q761,594.5,761,582.07H614.26a2.09,2.09,0,0,1-2.37-2.36V483.86C612.08,482.29,612.87,481.5,614.26,481.5Z"/><path class="cls-1" d="M702.69,110.54h15.64q90.93,0,162.3,52.79V335.41h-3.91Q799,286.54,710.51,286.53q-90.43,0-254.2,58.66-2,13.2-154.48,486.9H139.53l-3.91-2L276.41,388.21H235.35q-90.93,0-162.3-52.8V163.33H77q77.73,48.9,166.21,48.89,93.36,0,330.46-82.13Q655.27,110.55,702.69,110.54Z"/><path class="cls-2" d="M556.26,421.5h252c1.57.2,2.36,1,2.36,2.36v97q0,29.88-2.36,58h58c1.57.2,2.36,1,2.36,2.37v95.84a2.09,2.09,0,0,1-2.36,2.37H794.09q-16.27,67.44-32,93.47-35.21,59.18-80.46,59.17H556.26a2.09,2.09,0,0,1-2.37-2.37V733.87c.19-1.57,1-2.36,2.37-2.36h58q56.79,0,67.44-52.06H614.24a2.09,2.09,0,0,1-2.37-2.37V581.24q.28-2.37,2.37-2.37h86.37Q703,534.5,703,522.07H556.26a2.09,2.09,0,0,1-2.37-2.36V423.86C554.08,422.29,554.87,421.5,556.26,421.5Z"/><path d="M718.38,110.54q90.93,0,162.3,52.79V335.41h-3.91Q799,286.54,710.56,286.53q-90.45,0-254.21,58.66-2,13.2-154.48,486.89H139.58l-3.92-2,140.8-441.92H235.39q-90.93,0-162.3-52.8V163.33H77q77.73,48.9,166.21,48.89,93.37,0,330.47-82.13,81.63-19.55,129.05-19.55h15.65m0-30H702.73c-34.27,0-78.77,6.66-136,20.38-1,.23-1.9.5-2.83.82-154.17,53.4-262,80.48-320.65,80.48-53,0-103.52-14.9-150.23-44.28a30,30,0,0,0-16-4.61H73.09a30,30,0,0,0-30,30V335.41a30,30,0,0,0,12.16,24.12c52.63,38.93,113.24,58.68,180.14,58.68h0L107.08,821a30,30,0,0,0,15.17,36l3.92,1.95a30,30,0,0,0,13.41,3.16H301.87a30,30,0,0,0,28.56-20.8C437.86,507.62,470.71,403,481,368.28c98.43-34.35,175.6-51.75,229.52-51.75,53,0,103.51,14.89,150.24,44.28a30,30,0,0,0,16,4.6h3.91a30,30,0,0,0,30-30V163.33a30,30,0,0,0-12.16-24.11c-52.64-38.94-113.25-58.68-180.14-58.68Z"/><path d="M808.33,421.5c1.58.2,2.37,1,2.37,2.36v97q0,29.88-2.37,58h58q2.37.3,2.37,2.37v95.84a2.09,2.09,0,0,1-2.37,2.37H794.13q-16.27,67.44-32,93.47Q727,832.1,681.72,832.08H556.3a2.09,2.09,0,0,1-2.37-2.36V733.87c.2-1.57,1-2.36,2.37-2.36h58q56.79,0,67.44-52.06H614.28a2.09,2.09,0,0,1-2.37-2.37V581.24c.19-1.58,1-2.37,2.37-2.37h86.38Q703,534.5,703,522.07H556.3a2.09,2.09,0,0,1-2.37-2.36V423.86c.2-1.57,1-2.36,2.37-2.36h252m0-30h-252a32.17,32.17,0,0,0-32.14,28.69,30,30,0,0,0-.23,3.67v95.85a32,32,0,0,0,32.37,32.36h43.8a32.39,32.39,0,0,0-18,25.52,31.78,31.78,0,0,0-.22,3.65v95.84a32.2,32.2,0,0,0,10.92,24.43H556.3a32.16,32.16,0,0,0-32.14,28.68,30.17,30.17,0,0,0-.23,3.68v95.85a32,32,0,0,0,32.37,32.36H681.72c21.55,0,41.91-6.93,60.52-20.61,16.58-12.2,32-30.07,45.69-53.14,10.1-16.81,19.82-42.74,29.53-78.88h48.85a32,32,0,0,0,32.37-32.37V581.24a32.2,32.2,0,0,0-28.59-32.13,29.74,29.74,0,0,0-3.78-.24H840.18c.34-9.23.52-18.58.52-28v-97a32.19,32.19,0,0,0-28.62-32.13,31.45,31.45,0,0,0-3.75-.23Z"/></g></svg>