<svg xmlns="http://www.w3.org/2000/svg" xmlns:xlink="http://www.w3.org/1999/xlink" viewBox="0 0 1000 1000"><defs><style>.cls-1{fill:#131313;}.cls-2{fill:url(#linear-gradient);}.cls-3{fill:#fff;}.cls-4{fill:url(#linear-gradient-2);}.cls-5{fill:#66beb9;}.cls-6{fill:#f8b119;}</style><linearGradient id="linear-gradient" x1="905.32" y1="-0.47" x2="139.36" y2="912.55" gradientUnits="userSpaceOnUse"><stop offset="0" stop-color="#f9f4e9"/><stop offset="0.19" stop-color="#f4f3e8"/><stop offset="0.42" stop-color="#e6eee6"/><stop offset="0.66" stop-color="#cfe8e3"/><stop offset="0.91" stop-color="#afdede"/><stop offset="1" stop-color="#a1dadc"/></linearGradient><linearGradient id="linear-gradient-2" x1="344" y1="668.18" x2="697.87" y2="246.9" gradientUnits="userSpaceOnUse"><stop offset="0" stop-color="#fab218"/><stop offset="1" stop-color="#f8be59"/></linearGradient></defs><title>Settings</title><g id="Folder"><path class="cls-1" d="M850.05,736.79l78.76-136.44h0l-67.08-38.72q.35-1.87.63-3.75c0-.1,0-.2,0-.3.2-1.29.38-2.58.55-3.87s.35-2.69.5-4c0-.3.07-.59.1-.89.14-1.32.26-2.64.36-3.95l0-.55c.09-1.21.16-2.41.21-3.62,0-.25,0-.5,0-.76,0-1.31.08-2.63.09-3.94v-.75q0-1.85,0-3.69v-.43c0-1.33-.09-2.66-.16-4,0-.26,0-.51-.05-.77-.16-2.71-.4-5.4-.71-8.09,0-.22-.05-.44-.07-.66-.17-1.35-.34-2.69-.54-4,0-.09,0-.18-.05-.27-.19-1.3-.41-2.6-.64-3.9,0-.14,0-.28-.07-.42-.25-1.35-.51-2.69-.79-4l-.09-.43q-.87-4.08-2-8.1L859,496c-.73-2.68-1.54-5.34-2.4-8l-.12-.35c-.45-1.33-.91-2.66-1.38-4h0l67.07-38.72L793.48,222h0l-97.54,56.32a297,297,0,0,0-40.37-23.54V150H398.16V254.79c-5,2.4-9.89,5-14.72,7.63A297.83,297.83,0,0,0,354.06,281c-.73.52-1.48,1-2.21,1.57l-85-49.06h0l-54.4,94.22-74.3,128.7h0l90.33,52.16L208,575.36l-63.17,36.48h0L273.5,834.76l99.79-57.62q6.84,4.14,13.92,7.92,2.35,1.26,4.74,2.48,6.41,3.27,13,6.23c2.14,1,4.29,1.91,6.46,2.83V906.73H668.82V783.82l1.4-.77c2.14-1.18,4.27-2.38,6.38-3.62q3.85-2.25,7.63-4.61,7.56-4.73,14.81-9.89l101.07,58.36h0Z"/><path class="cls-2" d="M783.54,501.62c.31-5.59.49-11.21.49-16.88,0-6.95-.26-13.83-.74-20.67L882.19,407,753.48,184.06l-97.54,56.31a297,297,0,0,0-40.37-23.54V112.07H358.16V216.83a298.37,298.37,0,0,0-46.31,27.76l-85-49.06L98.17,418.45l91.85,53c-.2,4.41-.32,8.83-.32,13.26a300.53,300.53,0,0,0,2.51,38.66l-87.42,50.48L233.5,796.8l99.79-57.62a295.75,295.75,0,0,0,38.12,19.46V868.77H628.82V745.86A297.44,297.44,0,0,0,659,727l101.07,58.36L888.81,562.4Zm-290,115.86a127.05,127.05,0,1,1,127-127.06A127.06,127.06,0,0,1,493.49,617.48Z"/><path class="cls-3" d="M493.49,504.11c6.84,0,13.68-6.84,13.68-13.69s-6.84-13.68-13.68-13.68-13.68,6.84-13.68,13.68S486.65,504.11,493.49,504.11Z"/><path class="cls-1" d="M494.63,508.68q-10.26,0-13.68-6.85c-2.28-4.56-4.56-9.12-4.56-13.69a12.54,12.54,0,0,1,6.84-11.4c4.56-2.29,6.84-4.57,11.4-4.57A16.14,16.14,0,0,1,506,499.55C503.75,506.39,499.19,508.68,494.63,508.68Zm0-27.38c-2.28,0-4.56,0-6.84,2.28l-4.56,4.56V495a4.9,4.9,0,0,0,4.56,4.56h6.84a4.9,4.9,0,0,0,4.56-4.56c2.28-2.28,2.28-4.57,2.28-6.85s0-4.56-2.28-6.84C499.19,483.58,496.91,481.3,494.63,481.3Z"/><path class="cls-4" d="M654.82,708,250.88,657.74c-56.78-6.55-96.08-63.35-78.61-118L233.41,341q13.1-45.87,52.4-72.09a124.21,124.21,0,0,1,87.34-19.66l262,32.77c30.57,4.37,59,17.48,78.61,41.51,19.65,21.84,32.75,52.42,34.94,83l10.91,207.52C761.82,670.85,711.6,714.53,654.82,708Z"/><path class="cls-1" d="M665.74,714.53h-13.1L250.87,662.11A131.91,131.91,0,0,1,209.39,649c-13.1-6.55-21.84-17.48-30.57-30.58-6.55-10.92-13.1-24-15.29-39.32-2.18-13.11,0-28.4,4.37-41.51L229,338.81a133.73,133.73,0,0,1,54.59-74.27c26.2-17.48,58.95-24,89.52-21.85l262,32.77c30.57,4.37,61.14,19.66,80.79,41.5,21.84,24,34.94,54.61,34.94,85.2l10.92,207.52a137.47,137.47,0,0,1-6.55,41.51c-4.37,13.1-13.1,24-24,34.95C716,703.61,691.94,714.53,665.74,714.53ZM355.68,253.61c-26.2,0-52.4,8.74-74.24,24S244.32,317,235.59,341L174.45,539.78c-4.37,13.1-4.37,24-2.18,37.13a96.44,96.44,0,0,0,13.1,35c6.55,10.93,17.47,19.66,28.39,26.22s24,10.92,37.11,13.11l404,50.24c13.11,2.18,26.21,0,39.31-4.37s24-10.92,32.75-19.66,15.29-19.66,21.84-30.58c4.36-10.93,6.55-24,6.55-37.14L744.35,402.16q-3.27-45.89-32.75-78.64c-19.66-21.85-45.86-35-76.43-39.32l-262-32.77C366.6,253.61,360.05,253.61,355.68,253.61Z"/><path class="cls-3" d="M600.24,638.08l-281.68-35c-39.3-4.37-65.5-43.69-54.58-83l41.48-139.81c6.55-19.66,19.65-37.13,37.12-50.24,19.65-10.92,39.31-15.29,61.14-13.11l183.42,21.85a83.47,83.47,0,0,1,54.58,28.39c15.29,15.3,24,37.14,24,59l6.55,146.35C676.66,611.86,641.72,642.45,600.24,638.08Z"/><path class="cls-1" d="M609,642.45h-8.73L318.56,605.31c-10.91-2.18-19.65-4.37-28.38-10.92-8.74-4.37-15.29-13.11-21.84-21.85-4.37-8.73-8.73-17.47-10.92-26.21s0-19.66,2.19-28.4l41.48-139.8q9.84-32.78,39.31-52.43a107.5,107.5,0,0,1,63.32-13.11l183.41,21.85c21.84,2.18,41.49,13.1,56.78,28.4s24,37.13,24,59l6.56,146.35c0,8.74,0,19.66-4.37,28.4s-8.74,17.48-15.29,24C643.91,635.89,626.44,642.45,609,642.45Zm-6.55-8.74c8.73,2.18,17.47,0,26.2-2.19a52,52,0,0,0,24-13.1c6.55-6.56,10.92-13.11,15.28-21.85,2.19-8.74,4.37-17.47,4.37-26.21L665.74,424c0-19.66-8.73-39.32-24-54.61-13.1-15.29-32.75-24-52.4-28.4L405.9,319.15c-19.65-2.19-41.48,2.18-58.95,13.1s-30.57,28.4-37.12,50.25L268.34,522.3c-2.18,8.74-4.37,17.48-2.18,26.21s4.37,17.48,8.73,24c4.37,8.74,10.92,13.11,19.65,19.66,8.74,4.37,17.47,8.74,26.21,8.74Z"/><path class="cls-1" d="M497.61,568.17c-10.92,0-19.65-2.18-30.57-4.36-28.38-8.74-43.67-21.85-39.3-37.14a2.14,2.14,0,0,1,2.18-2.18l2.18-2.19h4.37a2.14,2.14,0,0,1,2.19,2.19l2.18,2.18V531c-2.18,6.55,10.92,17.48,30.57,21.84,24,6.56,43.67,4.37,43.67,0,0-2.18,2.18-2.18,2.18-4.36h4.37c2.18,0,2.18,2.18,4.37,2.18v4.37C523.81,563.81,510.71,568.17,497.61,568.17Z"/><path class="cls-1" d="M405.9,469.87c-2.18,0-2.18,0-4.36-2.18-2.19,0-2.19-2.19-2.19-4.37V459a2.14,2.14,0,0,1,2.19-2.18c10.91-6.55,32.75-6.55,43.67-6.55-15.29-21.85-45.86-32.77-48-32.77a2.14,2.14,0,0,1-2.18-2.19,2.14,2.14,0,0,0-2.19-2.18v-4.37c0-2.18,2.19-2.18,4.37-4.37h4.37c2.18,0,48,17.48,58.95,50.24v2.19c0,2.18,0,2.18-2.18,2.18l-2.18,2.19h-2.19c-8.73-2.19-37.12-2.19-48,4.36C408.09,469.87,405.9,469.87,405.9,469.87Z"/><path class="cls-5" d="M578.4,732l-34.93-19.66a2.14,2.14,0,0,1-2.19-2.19s-2.18-2.18-2.18-4.36v-4.37c0-2.19,0-2.19,2.18-4.37l59-111.41a2.14,2.14,0,0,1,2.18-2.18s2.18-2.19,4.37-2.19h4.36c2.19,0,2.19,0,4.37,2.19l34.94,19.66a2.14,2.14,0,0,1,2.18,2.18s2.18,2.19,2.18,4.37v4.37c0,2.18,0,2.18-2.18,4.37L593.69,729.83A2.14,2.14,0,0,1,591.5,732s-2.18,2.18-4.36,2.18h-4.37C580.59,732,580.59,732,578.4,732Z"/><path class="cls-1" d="M582.77,738.56c-2.19,0-4.37,0-6.55-2.18l-34.94-19.66c-4.37-2.19-6.55-4.37-6.55-8.74-2.18-4.37,0-8.74,2.18-10.92l59-111.41c2.18-4.37,4.37-6.55,8.73-6.55,4.37-2.19,8.74,0,10.92,2.18l34.94,19.66c4.36,2.19,6.55,4.37,6.55,8.74,2.18,4.37,0,8.74-2.19,10.92L595.87,732c-2.18,2.18-2.18,4.37-6.55,6.55C589.32,736.38,585,738.56,582.77,738.56Zm-2.19-10.92h6.55l2.19-2.18,58.95-111.41v-4.37a2.14,2.14,0,0,0-2.18-2.18l-34.94-19.67H604.6L602.42,590l-59,111.41v4.37a2.14,2.14,0,0,0,2.19,2.18Z"/><path class="cls-5" d="M676.66,638.08c78.61,0,141.93-63.35,141.93-144.18a141.93,141.93,0,1,0-283.86,0C534.73,572.54,598.05,638.08,676.66,638.08Z"/><path class="cls-1" d="M676.66,642.45c-30.57,0-58.95-8.74-83-26.22s-43.67-41.5-54.59-69.9-13.1-59-4.37-87.38c6.55-28.4,24-54.61,45.86-76.45,21.83-19.66,50.22-32.77,80.79-35,30.57-4.36,59,2.19,85.15,17.48s48,37.14,61.14,63.35,19.65,56.8,15.29,87.38c-4.37,35-21.84,67.72-48,91.75C746.53,629.34,711.6,642.45,676.66,642.45Zm0-286.17c-34.94,0-69.87,13.11-96.07,39.32a129.13,129.13,0,0,0-41.49,93.93c-2.19,35,10.92,69.91,34.94,98.3,24,26.22,56.77,43.69,91.7,45.88A137.79,137.79,0,0,0,764,600.94c26.2-24,43.67-56.79,48-91.75s-6.55-72.08-28.39-100.48-54.59-45.87-89.52-52.43Z"/><path class="cls-3" d="M777.1,496.09,648.27,513.56c2.19,10.93,6.55,17.48,10.92,24A16.64,16.64,0,0,0,670.11,542H681c4.36,0,8.73-2.18,13.1-4.37s6.55-6.55,8.73-10.92a2.14,2.14,0,0,1,2.18-2.18,2.14,2.14,0,0,0,2.19-2.19l63.32-8.74h2.18a2.14,2.14,0,0,1,2.19,2.19,2.14,2.14,0,0,0,2.18,2.18v2.19C774.92,531,770.55,542,764,550.7a77.2,77.2,0,0,1-30.57,28.4c-13.1,8.73-28.39,13.1-43.67,15.29a108.78,108.78,0,0,1-52.4-6.56c-15.29-6.55-30.57-17.47-39.31-30.58q-16.38-19.65-19.65-52.42c-2.18-19.66,0-39.33,6.55-54.61s17.47-30.59,30.57-39.33a110.29,110.29,0,0,1,50.22-19.66c17.47-2.18,37.12,0,52.41,4.37,15.28,6.56,28.38,15.29,39.3,30.59,10.92,17.47,17.47,34.95,17.47,52.42C777.1,485.17,777.1,489.53,777.1,496.09Zm-74.24-24c0-4.37-2.18-6.56-4.37-10.92-2.18-2.19-4.36-6.56-6.55-8.74-6.55-4.37-15.28-6.55-21.83-4.37-6.55,0-15.29,4.37-19.65,8.74-4.37,6.55-8.74,13.11-8.74,21.84Z"/><path class="cls-3" d="M270.53,362.84c-4.37,0-6.55-2.19-8.74-4.37,0-2.19-2.18-6.56,0-8.74,0,0,17.47-87.38,122.28-76.46,2.18,0,2.18,0,4.37,2.19a2.14,2.14,0,0,1,2.18,2.18s2.18,2.19,2.18,4.37v4.37c0,2.18,0,2.18-2.18,4.37a2.14,2.14,0,0,1-2.18,2.18s-2.19,2.19-4.37,2.19H379.7c-85.16-10.92-98.26,56.79-98.26,59s-2.18,4.37-4.36,6.55C274.89,360.65,272.71,362.84,270.53,362.84Z"/><path class="cls-3" d="M462.68,303.86,419,299.49c-2.19,0-4.37-2.19-6.56-4.37s-2.18-4.37-2.18-6.56,2.18-4.36,4.37-6.55,4.37-2.18,6.55-2.18l43.67,4.37,4.37,2.18c2.18,2.18,2.18,4.37,2.18,6.55s-2.18,4.37-2.18,6.56C467,303.86,464.86,303.86,462.68,303.86Z"/><path class="cls-6" d="M560.93,651.19c2.19,28.39,17.47,48,43.67,52.42C633,708,657,677.4,659.19,664.29c2.19-15.29,0-32.77-26.2-50.24-8.73-6.55-19.65-8.74-28.39-10.92-19.65-2.19-37.12,13.1-41.48,21.84"/><path class="cls-1" d="M611.16,708H604.6c-28.38-4.37-45.85-26.21-48-56.79,0-2.19,0-2.19,2.18-4.37,0-2.19,2.18-2.19,4.37-2.19s2.18,0,4.36,2.19c2.19,0,2.19,2.18,2.19,4.37q3.27,39.31,39.3,45.87,13.11,3.27,26.2-6.56A58.1,58.1,0,0,0,657,662.11c2.18-13.11,0-28.4-24-43.69-8.73-4.37-17.47-8.74-26.2-10.92-17.47-2.19-32.75,10.92-34.94,19.66a2.14,2.14,0,0,1-2.18,2.18,2.14,2.14,0,0,0-2.19,2.18h-4.36a2.14,2.14,0,0,1-2.19-2.18,2.14,2.14,0,0,0-2.18-2.18v-4.37c4.37-13.11,26.2-28.4,48-26.22a126.48,126.48,0,0,1,30.57,10.93c24,15.29,32.75,32.76,30.57,54.61-2.19,8.73-10.92,26.21-26.21,34.95A47.65,47.65,0,0,1,611.16,708Z"/><path class="cls-1" d="M615.57,112.07V216.83a297,297,0,0,1,40.37,23.54l97.54-56.31L882.19,407,815.12,445.7c8,21.93,11.27,46,7.84,70.05q-.51,4-1.23,7.92l67.08,38.73L760.11,785.33,659,727a297.44,297.44,0,0,1-30.22,18.89V868.77H371.41V758.64a295.75,295.75,0,0,1-38.12-19.46L233.5,796.8,104.79,573.88,168,537.4l20.54-66.79L98.17,418.45l128.7-222.92,85,49.06a298.37,298.37,0,0,1,46.31-27.76V112.07H615.57m30-30H328.16V198.61q-9,5-17.65,10.56l-68.64-39.62-26-15-15,26L72.19,403.45l-15,26,26,15,69.63,40.21-10.05,32.68-53,30.58-26,15,15,26L207.52,811.8l15,26,26-15,84.92-49q4,2.1,8,4.11V898.77H658.82V763.11l1.36-.84,84.93,49,26,15,15-26L914.79,577.4l15-26-26-15-49.87-28.8A174.21,174.21,0,0,0,850.35,460l46.84-27,26-15-15-26L779.47,169.06l-15-26-26,15-81.63,47.12q-5.58-3.41-11.29-6.58V82.07Z"/></g></svg>